%TF.GenerationSoftware,KiCad,Pcbnew,(5.1.6)-1*%
%TF.CreationDate,2020-07-27T14:36:12-04:00*%
%TF.ProjectId,CARIceCreamControl,43415249-6365-4437-9265-616d436f6e74,rev?*%
%TF.SameCoordinates,Original*%
%TF.FileFunction,Paste,Top*%
%TF.FilePolarity,Positive*%
%FSLAX46Y46*%
G04 Gerber Fmt 4.6, Leading zero omitted, Abs format (unit mm)*
G04 Created by KiCad (PCBNEW (5.1.6)-1) date 2020-07-27 14:36:12*
%MOMM*%
%LPD*%
G01*
G04 APERTURE LIST*
%ADD10R,2.500000X1.800000*%
%ADD11R,1.800000X2.500000*%
%ADD12R,3.500000X3.800000*%
%ADD13R,2.000000X0.600000*%
%ADD14R,1.780000X2.000000*%
G04 APERTURE END LIST*
%TO.C,C1*%
G36*
G01*
X170300000Y-87005000D02*
X170300000Y-88255000D01*
G75*
G02*
X170050000Y-88505000I-250000J0D01*
G01*
X169300000Y-88505000D01*
G75*
G02*
X169050000Y-88255000I0J250000D01*
G01*
X169050000Y-87005000D01*
G75*
G02*
X169300000Y-86755000I250000J0D01*
G01*
X170050000Y-86755000D01*
G75*
G02*
X170300000Y-87005000I0J-250000D01*
G01*
G37*
G36*
G01*
X167500000Y-87005000D02*
X167500000Y-88255000D01*
G75*
G02*
X167250000Y-88505000I-250000J0D01*
G01*
X166500000Y-88505000D01*
G75*
G02*
X166250000Y-88255000I0J250000D01*
G01*
X166250000Y-87005000D01*
G75*
G02*
X166500000Y-86755000I250000J0D01*
G01*
X167250000Y-86755000D01*
G75*
G02*
X167500000Y-87005000I0J-250000D01*
G01*
G37*
%TD*%
%TO.C,C2*%
G36*
G01*
X131810000Y-81200000D02*
X129810000Y-81200000D01*
G75*
G02*
X129560000Y-80950000I0J250000D01*
G01*
X129560000Y-77950000D01*
G75*
G02*
X129810000Y-77700000I250000J0D01*
G01*
X131810000Y-77700000D01*
G75*
G02*
X132060000Y-77950000I0J-250000D01*
G01*
X132060000Y-80950000D01*
G75*
G02*
X131810000Y-81200000I-250000J0D01*
G01*
G37*
G36*
G01*
X131810000Y-74700000D02*
X129810000Y-74700000D01*
G75*
G02*
X129560000Y-74450000I0J250000D01*
G01*
X129560000Y-71450000D01*
G75*
G02*
X129810000Y-71200000I250000J0D01*
G01*
X131810000Y-71200000D01*
G75*
G02*
X132060000Y-71450000I0J-250000D01*
G01*
X132060000Y-74450000D01*
G75*
G02*
X131810000Y-74700000I-250000J0D01*
G01*
G37*
%TD*%
%TO.C,C3*%
G36*
G01*
X117320000Y-101870000D02*
X117320000Y-103870000D01*
G75*
G02*
X117070000Y-104120000I-250000J0D01*
G01*
X114070000Y-104120000D01*
G75*
G02*
X113820000Y-103870000I0J250000D01*
G01*
X113820000Y-101870000D01*
G75*
G02*
X114070000Y-101620000I250000J0D01*
G01*
X117070000Y-101620000D01*
G75*
G02*
X117320000Y-101870000I0J-250000D01*
G01*
G37*
G36*
G01*
X123820000Y-101870000D02*
X123820000Y-103870000D01*
G75*
G02*
X123570000Y-104120000I-250000J0D01*
G01*
X120570000Y-104120000D01*
G75*
G02*
X120320000Y-103870000I0J250000D01*
G01*
X120320000Y-101870000D01*
G75*
G02*
X120570000Y-101620000I250000J0D01*
G01*
X123570000Y-101620000D01*
G75*
G02*
X123820000Y-101870000I0J-250000D01*
G01*
G37*
%TD*%
%TO.C,C4*%
G36*
G01*
X180350000Y-74435000D02*
X181600000Y-74435000D01*
G75*
G02*
X181850000Y-74685000I0J-250000D01*
G01*
X181850000Y-75435000D01*
G75*
G02*
X181600000Y-75685000I-250000J0D01*
G01*
X180350000Y-75685000D01*
G75*
G02*
X180100000Y-75435000I0J250000D01*
G01*
X180100000Y-74685000D01*
G75*
G02*
X180350000Y-74435000I250000J0D01*
G01*
G37*
G36*
G01*
X180350000Y-71635000D02*
X181600000Y-71635000D01*
G75*
G02*
X181850000Y-71885000I0J-250000D01*
G01*
X181850000Y-72635000D01*
G75*
G02*
X181600000Y-72885000I-250000J0D01*
G01*
X180350000Y-72885000D01*
G75*
G02*
X180100000Y-72635000I0J250000D01*
G01*
X180100000Y-71885000D01*
G75*
G02*
X180350000Y-71635000I250000J0D01*
G01*
G37*
%TD*%
%TO.C,C5*%
G36*
G01*
X111245000Y-83830000D02*
X111245000Y-85080000D01*
G75*
G02*
X110995000Y-85330000I-250000J0D01*
G01*
X110245000Y-85330000D01*
G75*
G02*
X109995000Y-85080000I0J250000D01*
G01*
X109995000Y-83830000D01*
G75*
G02*
X110245000Y-83580000I250000J0D01*
G01*
X110995000Y-83580000D01*
G75*
G02*
X111245000Y-83830000I0J-250000D01*
G01*
G37*
G36*
G01*
X108445000Y-83830000D02*
X108445000Y-85080000D01*
G75*
G02*
X108195000Y-85330000I-250000J0D01*
G01*
X107445000Y-85330000D01*
G75*
G02*
X107195000Y-85080000I0J250000D01*
G01*
X107195000Y-83830000D01*
G75*
G02*
X107445000Y-83580000I250000J0D01*
G01*
X108195000Y-83580000D01*
G75*
G02*
X108445000Y-83830000I0J-250000D01*
G01*
G37*
%TD*%
D10*
%TO.C,D2*%
X134080000Y-99060000D03*
X130080000Y-99060000D03*
%TD*%
%TO.C,D3*%
G36*
G01*
X118720000Y-67665001D02*
X118720000Y-64414999D01*
G75*
G02*
X118969999Y-64165000I249999J0D01*
G01*
X120320001Y-64165000D01*
G75*
G02*
X120570000Y-64414999I0J-249999D01*
G01*
X120570000Y-67665001D01*
G75*
G02*
X120320001Y-67915000I-249999J0D01*
G01*
X118969999Y-67915000D01*
G75*
G02*
X118720000Y-67665001I0J249999D01*
G01*
G37*
G36*
G01*
X123270000Y-67665001D02*
X123270000Y-64414999D01*
G75*
G02*
X123519999Y-64165000I249999J0D01*
G01*
X124870001Y-64165000D01*
G75*
G02*
X125120000Y-64414999I0J-249999D01*
G01*
X125120000Y-67665001D01*
G75*
G02*
X124870001Y-67915000I-249999J0D01*
G01*
X123519999Y-67915000D01*
G75*
G02*
X123270000Y-67665001I0J249999D01*
G01*
G37*
%TD*%
D11*
%TO.C,D4*%
X120650000Y-76740000D03*
X120650000Y-80740000D03*
%TD*%
D12*
%TO.C,L1*%
X130810000Y-85050000D03*
X130810000Y-92750000D03*
%TD*%
%TO.C,L2*%
X104140000Y-97830000D03*
X104140000Y-90130000D03*
%TD*%
%TO.C,R1*%
G36*
G01*
X172095000Y-104915000D02*
X173345000Y-104915000D01*
G75*
G02*
X173595000Y-105165000I0J-250000D01*
G01*
X173595000Y-105915000D01*
G75*
G02*
X173345000Y-106165000I-250000J0D01*
G01*
X172095000Y-106165000D01*
G75*
G02*
X171845000Y-105915000I0J250000D01*
G01*
X171845000Y-105165000D01*
G75*
G02*
X172095000Y-104915000I250000J0D01*
G01*
G37*
G36*
G01*
X172095000Y-102115000D02*
X173345000Y-102115000D01*
G75*
G02*
X173595000Y-102365000I0J-250000D01*
G01*
X173595000Y-103115000D01*
G75*
G02*
X173345000Y-103365000I-250000J0D01*
G01*
X172095000Y-103365000D01*
G75*
G02*
X171845000Y-103115000I0J250000D01*
G01*
X171845000Y-102365000D01*
G75*
G02*
X172095000Y-102115000I250000J0D01*
G01*
G37*
%TD*%
%TO.C,R2*%
G36*
G01*
X171330000Y-88255000D02*
X171330000Y-87005000D01*
G75*
G02*
X171580000Y-86755000I250000J0D01*
G01*
X172330000Y-86755000D01*
G75*
G02*
X172580000Y-87005000I0J-250000D01*
G01*
X172580000Y-88255000D01*
G75*
G02*
X172330000Y-88505000I-250000J0D01*
G01*
X171580000Y-88505000D01*
G75*
G02*
X171330000Y-88255000I0J250000D01*
G01*
G37*
G36*
G01*
X174130000Y-88255000D02*
X174130000Y-87005000D01*
G75*
G02*
X174380000Y-86755000I250000J0D01*
G01*
X175130000Y-86755000D01*
G75*
G02*
X175380000Y-87005000I0J-250000D01*
G01*
X175380000Y-88255000D01*
G75*
G02*
X175130000Y-88505000I-250000J0D01*
G01*
X174380000Y-88505000D01*
G75*
G02*
X174130000Y-88255000I0J250000D01*
G01*
G37*
%TD*%
%TO.C,R3*%
G36*
G01*
X168155000Y-85080000D02*
X168155000Y-83830000D01*
G75*
G02*
X168405000Y-83580000I250000J0D01*
G01*
X169155000Y-83580000D01*
G75*
G02*
X169405000Y-83830000I0J-250000D01*
G01*
X169405000Y-85080000D01*
G75*
G02*
X169155000Y-85330000I-250000J0D01*
G01*
X168405000Y-85330000D01*
G75*
G02*
X168155000Y-85080000I0J250000D01*
G01*
G37*
G36*
G01*
X170955000Y-85080000D02*
X170955000Y-83830000D01*
G75*
G02*
X171205000Y-83580000I250000J0D01*
G01*
X171955000Y-83580000D01*
G75*
G02*
X172205000Y-83830000I0J-250000D01*
G01*
X172205000Y-85080000D01*
G75*
G02*
X171955000Y-85330000I-250000J0D01*
G01*
X171205000Y-85330000D01*
G75*
G02*
X170955000Y-85080000I0J250000D01*
G01*
G37*
%TD*%
%TO.C,R5*%
G36*
G01*
X183020000Y-70475000D02*
X183020000Y-69225000D01*
G75*
G02*
X183270000Y-68975000I250000J0D01*
G01*
X184020000Y-68975000D01*
G75*
G02*
X184270000Y-69225000I0J-250000D01*
G01*
X184270000Y-70475000D01*
G75*
G02*
X184020000Y-70725000I-250000J0D01*
G01*
X183270000Y-70725000D01*
G75*
G02*
X183020000Y-70475000I0J250000D01*
G01*
G37*
G36*
G01*
X180220000Y-70475000D02*
X180220000Y-69225000D01*
G75*
G02*
X180470000Y-68975000I250000J0D01*
G01*
X181220000Y-68975000D01*
G75*
G02*
X181470000Y-69225000I0J-250000D01*
G01*
X181470000Y-70475000D01*
G75*
G02*
X181220000Y-70725000I-250000J0D01*
G01*
X180470000Y-70725000D01*
G75*
G02*
X180220000Y-70475000I0J250000D01*
G01*
G37*
%TD*%
%TO.C,R6*%
G36*
G01*
X182890000Y-71635000D02*
X184140000Y-71635000D01*
G75*
G02*
X184390000Y-71885000I0J-250000D01*
G01*
X184390000Y-72635000D01*
G75*
G02*
X184140000Y-72885000I-250000J0D01*
G01*
X182890000Y-72885000D01*
G75*
G02*
X182640000Y-72635000I0J250000D01*
G01*
X182640000Y-71885000D01*
G75*
G02*
X182890000Y-71635000I250000J0D01*
G01*
G37*
G36*
G01*
X182890000Y-74435000D02*
X184140000Y-74435000D01*
G75*
G02*
X184390000Y-74685000I0J-250000D01*
G01*
X184390000Y-75435000D01*
G75*
G02*
X184140000Y-75685000I-250000J0D01*
G01*
X182890000Y-75685000D01*
G75*
G02*
X182640000Y-75435000I0J250000D01*
G01*
X182640000Y-74685000D01*
G75*
G02*
X182890000Y-74435000I250000J0D01*
G01*
G37*
%TD*%
%TO.C,R7*%
G36*
G01*
X105925000Y-75555000D02*
X105925000Y-74305000D01*
G75*
G02*
X106175000Y-74055000I250000J0D01*
G01*
X106925000Y-74055000D01*
G75*
G02*
X107175000Y-74305000I0J-250000D01*
G01*
X107175000Y-75555000D01*
G75*
G02*
X106925000Y-75805000I-250000J0D01*
G01*
X106175000Y-75805000D01*
G75*
G02*
X105925000Y-75555000I0J250000D01*
G01*
G37*
G36*
G01*
X108725000Y-75555000D02*
X108725000Y-74305000D01*
G75*
G02*
X108975000Y-74055000I250000J0D01*
G01*
X109725000Y-74055000D01*
G75*
G02*
X109975000Y-74305000I0J-250000D01*
G01*
X109975000Y-75555000D01*
G75*
G02*
X109725000Y-75805000I-250000J0D01*
G01*
X108975000Y-75805000D01*
G75*
G02*
X108725000Y-75555000I0J250000D01*
G01*
G37*
%TD*%
%TO.C,R8*%
G36*
G01*
X180220000Y-67935000D02*
X180220000Y-66685000D01*
G75*
G02*
X180470000Y-66435000I250000J0D01*
G01*
X181220000Y-66435000D01*
G75*
G02*
X181470000Y-66685000I0J-250000D01*
G01*
X181470000Y-67935000D01*
G75*
G02*
X181220000Y-68185000I-250000J0D01*
G01*
X180470000Y-68185000D01*
G75*
G02*
X180220000Y-67935000I0J250000D01*
G01*
G37*
G36*
G01*
X183020000Y-67935000D02*
X183020000Y-66685000D01*
G75*
G02*
X183270000Y-66435000I250000J0D01*
G01*
X184020000Y-66435000D01*
G75*
G02*
X184270000Y-66685000I0J-250000D01*
G01*
X184270000Y-67935000D01*
G75*
G02*
X184020000Y-68185000I-250000J0D01*
G01*
X183270000Y-68185000D01*
G75*
G02*
X183020000Y-67935000I0J250000D01*
G01*
G37*
%TD*%
%TO.C,R9*%
G36*
G01*
X112255000Y-74305000D02*
X112255000Y-75555000D01*
G75*
G02*
X112005000Y-75805000I-250000J0D01*
G01*
X111255000Y-75805000D01*
G75*
G02*
X111005000Y-75555000I0J250000D01*
G01*
X111005000Y-74305000D01*
G75*
G02*
X111255000Y-74055000I250000J0D01*
G01*
X112005000Y-74055000D01*
G75*
G02*
X112255000Y-74305000I0J-250000D01*
G01*
G37*
G36*
G01*
X115055000Y-74305000D02*
X115055000Y-75555000D01*
G75*
G02*
X114805000Y-75805000I-250000J0D01*
G01*
X114055000Y-75805000D01*
G75*
G02*
X113805000Y-75555000I0J250000D01*
G01*
X113805000Y-74305000D01*
G75*
G02*
X114055000Y-74055000I250000J0D01*
G01*
X114805000Y-74055000D01*
G75*
G02*
X115055000Y-74305000I0J-250000D01*
G01*
G37*
%TD*%
%TO.C,R10*%
G36*
G01*
X115580000Y-80785000D02*
X116830000Y-80785000D01*
G75*
G02*
X117080000Y-81035000I0J-250000D01*
G01*
X117080000Y-81785000D01*
G75*
G02*
X116830000Y-82035000I-250000J0D01*
G01*
X115580000Y-82035000D01*
G75*
G02*
X115330000Y-81785000I0J250000D01*
G01*
X115330000Y-81035000D01*
G75*
G02*
X115580000Y-80785000I250000J0D01*
G01*
G37*
G36*
G01*
X115580000Y-77985000D02*
X116830000Y-77985000D01*
G75*
G02*
X117080000Y-78235000I0J-250000D01*
G01*
X117080000Y-78985000D01*
G75*
G02*
X116830000Y-79235000I-250000J0D01*
G01*
X115580000Y-79235000D01*
G75*
G02*
X115330000Y-78985000I0J250000D01*
G01*
X115330000Y-78235000D01*
G75*
G02*
X115580000Y-77985000I250000J0D01*
G01*
G37*
%TD*%
%TO.C,R11*%
G36*
G01*
X182255000Y-104915000D02*
X183505000Y-104915000D01*
G75*
G02*
X183755000Y-105165000I0J-250000D01*
G01*
X183755000Y-105915000D01*
G75*
G02*
X183505000Y-106165000I-250000J0D01*
G01*
X182255000Y-106165000D01*
G75*
G02*
X182005000Y-105915000I0J250000D01*
G01*
X182005000Y-105165000D01*
G75*
G02*
X182255000Y-104915000I250000J0D01*
G01*
G37*
G36*
G01*
X182255000Y-102115000D02*
X183505000Y-102115000D01*
G75*
G02*
X183755000Y-102365000I0J-250000D01*
G01*
X183755000Y-103115000D01*
G75*
G02*
X183505000Y-103365000I-250000J0D01*
G01*
X182255000Y-103365000D01*
G75*
G02*
X182005000Y-103115000I0J250000D01*
G01*
X182005000Y-102365000D01*
G75*
G02*
X182255000Y-102115000I250000J0D01*
G01*
G37*
%TD*%
%TO.C,R12*%
G36*
G01*
X179715000Y-102115000D02*
X180965000Y-102115000D01*
G75*
G02*
X181215000Y-102365000I0J-250000D01*
G01*
X181215000Y-103115000D01*
G75*
G02*
X180965000Y-103365000I-250000J0D01*
G01*
X179715000Y-103365000D01*
G75*
G02*
X179465000Y-103115000I0J250000D01*
G01*
X179465000Y-102365000D01*
G75*
G02*
X179715000Y-102115000I250000J0D01*
G01*
G37*
G36*
G01*
X179715000Y-104915000D02*
X180965000Y-104915000D01*
G75*
G02*
X181215000Y-105165000I0J-250000D01*
G01*
X181215000Y-105915000D01*
G75*
G02*
X180965000Y-106165000I-250000J0D01*
G01*
X179715000Y-106165000D01*
G75*
G02*
X179465000Y-105915000I0J250000D01*
G01*
X179465000Y-105165000D01*
G75*
G02*
X179715000Y-104915000I250000J0D01*
G01*
G37*
%TD*%
%TO.C,R13*%
G36*
G01*
X107195000Y-103495000D02*
X107195000Y-102245000D01*
G75*
G02*
X107445000Y-101995000I250000J0D01*
G01*
X108195000Y-101995000D01*
G75*
G02*
X108445000Y-102245000I0J-250000D01*
G01*
X108445000Y-103495000D01*
G75*
G02*
X108195000Y-103745000I-250000J0D01*
G01*
X107445000Y-103745000D01*
G75*
G02*
X107195000Y-103495000I0J250000D01*
G01*
G37*
G36*
G01*
X109995000Y-103495000D02*
X109995000Y-102245000D01*
G75*
G02*
X110245000Y-101995000I250000J0D01*
G01*
X110995000Y-101995000D01*
G75*
G02*
X111245000Y-102245000I0J-250000D01*
G01*
X111245000Y-103495000D01*
G75*
G02*
X110995000Y-103745000I-250000J0D01*
G01*
X110245000Y-103745000D01*
G75*
G02*
X109995000Y-103495000I0J250000D01*
G01*
G37*
%TD*%
%TO.C,R14*%
G36*
G01*
X175885000Y-106165000D02*
X174635000Y-106165000D01*
G75*
G02*
X174385000Y-105915000I0J250000D01*
G01*
X174385000Y-105165000D01*
G75*
G02*
X174635000Y-104915000I250000J0D01*
G01*
X175885000Y-104915000D01*
G75*
G02*
X176135000Y-105165000I0J-250000D01*
G01*
X176135000Y-105915000D01*
G75*
G02*
X175885000Y-106165000I-250000J0D01*
G01*
G37*
G36*
G01*
X175885000Y-103365000D02*
X174635000Y-103365000D01*
G75*
G02*
X174385000Y-103115000I0J250000D01*
G01*
X174385000Y-102365000D01*
G75*
G02*
X174635000Y-102115000I250000J0D01*
G01*
X175885000Y-102115000D01*
G75*
G02*
X176135000Y-102365000I0J-250000D01*
G01*
X176135000Y-103115000D01*
G75*
G02*
X175885000Y-103365000I-250000J0D01*
G01*
G37*
%TD*%
%TO.C,R15*%
G36*
G01*
X178425000Y-103365000D02*
X177175000Y-103365000D01*
G75*
G02*
X176925000Y-103115000I0J250000D01*
G01*
X176925000Y-102365000D01*
G75*
G02*
X177175000Y-102115000I250000J0D01*
G01*
X178425000Y-102115000D01*
G75*
G02*
X178675000Y-102365000I0J-250000D01*
G01*
X178675000Y-103115000D01*
G75*
G02*
X178425000Y-103365000I-250000J0D01*
G01*
G37*
G36*
G01*
X178425000Y-106165000D02*
X177175000Y-106165000D01*
G75*
G02*
X176925000Y-105915000I0J250000D01*
G01*
X176925000Y-105165000D01*
G75*
G02*
X177175000Y-104915000I250000J0D01*
G01*
X178425000Y-104915000D01*
G75*
G02*
X178675000Y-105165000I0J-250000D01*
G01*
X178675000Y-105915000D01*
G75*
G02*
X178425000Y-106165000I-250000J0D01*
G01*
G37*
%TD*%
%TO.C,R16*%
G36*
G01*
X119520000Y-113655000D02*
X119520000Y-112405000D01*
G75*
G02*
X119770000Y-112155000I250000J0D01*
G01*
X120520000Y-112155000D01*
G75*
G02*
X120770000Y-112405000I0J-250000D01*
G01*
X120770000Y-113655000D01*
G75*
G02*
X120520000Y-113905000I-250000J0D01*
G01*
X119770000Y-113905000D01*
G75*
G02*
X119520000Y-113655000I0J250000D01*
G01*
G37*
G36*
G01*
X116720000Y-113655000D02*
X116720000Y-112405000D01*
G75*
G02*
X116970000Y-112155000I250000J0D01*
G01*
X117720000Y-112155000D01*
G75*
G02*
X117970000Y-112405000I0J-250000D01*
G01*
X117970000Y-113655000D01*
G75*
G02*
X117720000Y-113905000I-250000J0D01*
G01*
X116970000Y-113905000D01*
G75*
G02*
X116720000Y-113655000I0J250000D01*
G01*
G37*
%TD*%
D13*
%TO.C,U2*%
X111670000Y-81915000D03*
X111670000Y-80645000D03*
X111670000Y-78105000D03*
X106770000Y-78105000D03*
X106770000Y-79375000D03*
X106770000Y-80645000D03*
X106770000Y-81915000D03*
%TD*%
D14*
%TO.C,U3*%
X191770000Y-78420000D03*
X186690000Y-87950000D03*
X189230000Y-78420000D03*
X189230000Y-87950000D03*
X186690000Y-78420000D03*
X191770000Y-87950000D03*
%TD*%
M02*
