M48
; DRILL file {KiCad (5.1.6)-1} date 07/27/20 14:36:15
; FORMAT={-:-/ absolute / metric / decimal}
; #@! TF.CreationDate,2020-07-27T14:36:15-04:00
; #@! TF.GenerationSoftware,Kicad,Pcbnew,(5.1.6)-1
; #@! TF.FileFunction,Plated,1,2,PTH
FMAT,2
METRIC
T1C0.400
T2C0.600
T3C0.800
T4C0.900
T5C1.000
T6C1.100
T7C1.200
T8C1.300
T9C1.400
%
G90
G05
T1
X113.03Y-102.87
X113.665Y-78.105
X127.635Y-79.375
X182.88Y-100.33
X184.785Y-105.41
X191.77Y-90.17
T2
X116.205Y-69.755
X116.205Y-71.755
T3
X120.015Y-89.535
X120.015Y-92.035
X174.625Y-91.44
X174.625Y-99.06
X177.165Y-91.44
X177.165Y-99.06
X179.705Y-91.44
X179.705Y-99.06
T4
X171.45Y-113.03
X173.99Y-113.03
X123.19Y-113.03
X125.73Y-113.03
X185.42Y-113.03
X187.96Y-113.03
X178.435Y-113.03
X180.975Y-113.03
T5
X113.03Y-121.92
X115.57Y-121.92
X177.8Y-69.85
X177.8Y-72.39
X173.99Y-121.92
X176.53Y-121.92
X179.07Y-121.92
X181.61Y-121.92
T6
X164.465Y-81.28
X167.005Y-81.28
X169.545Y-81.28
T7
X142.24Y-66.04
X142.24Y-86.36
X148.59Y-78.74
X156.21Y-78.74
T8
X142.24Y-92.47
X142.24Y-102.87
X152.64Y-92.47
X152.64Y-102.87
T9
X140.67Y-121.92
X144.63Y-121.92
X148.59Y-121.92
X159.87Y-121.92
X163.83Y-121.92
T0
M30
