%TF.GenerationSoftware,KiCad,Pcbnew,(5.1.6)-1*%
%TF.CreationDate,2020-07-27T14:36:12-04:00*%
%TF.ProjectId,CARIceCreamControl,43415249-6365-4437-9265-616d436f6e74,rev?*%
%TF.SameCoordinates,Original*%
%TF.FileFunction,Soldermask,Bot*%
%TF.FilePolarity,Negative*%
%FSLAX46Y46*%
G04 Gerber Fmt 4.6, Leading zero omitted, Abs format (unit mm)*
G04 Created by KiCad (PCBNEW (5.1.6)-1) date 2020-07-27 14:36:12*
%MOMM*%
%LPD*%
G01*
G04 APERTURE LIST*
%ADD10O,2.500000X2.500000*%
%ADD11C,2.500000*%
%ADD12C,2.700000*%
%ADD13R,2.700000X2.700000*%
%ADD14C,4.400000*%
%ADD15R,1.300000X1.300000*%
%ADD16C,1.300000*%
%ADD17R,1.700000X1.700000*%
%ADD18C,1.700000*%
%ADD19O,3.600000X3.600000*%
%ADD20R,2.005000X2.100000*%
%ADD21O,2.005000X2.100000*%
%ADD22R,1.900000X1.900000*%
%ADD23C,1.900000*%
%ADD24R,1.800000X1.800000*%
%ADD25O,1.800000X1.800000*%
%ADD26O,1.700000X1.700000*%
G04 APERTURE END LIST*
D10*
%TO.C,F1*%
X148590000Y-78740000D03*
D11*
X156210000Y-78740000D03*
%TD*%
D12*
%TO.C,D1*%
X152640000Y-102870000D03*
D13*
X142240000Y-102870000D03*
D12*
X142240000Y-92470000D03*
X152640000Y-92470000D03*
%TD*%
D11*
%TO.C,J3*%
X159870000Y-121920000D03*
G36*
G01*
X165080000Y-120930417D02*
X165080000Y-122909583D01*
G75*
G02*
X164819583Y-123170000I-260417J0D01*
G01*
X162840417Y-123170000D01*
G75*
G02*
X162580000Y-122909583I0J260417D01*
G01*
X162580000Y-120930417D01*
G75*
G02*
X162840417Y-120670000I260417J0D01*
G01*
X164819583Y-120670000D01*
G75*
G02*
X165080000Y-120930417I0J-260417D01*
G01*
G37*
%TD*%
%TO.C,J2*%
X140670000Y-121920000D03*
X144630000Y-121920000D03*
G36*
G01*
X149840000Y-120930417D02*
X149840000Y-122909583D01*
G75*
G02*
X149579583Y-123170000I-260417J0D01*
G01*
X147600417Y-123170000D01*
G75*
G02*
X147340000Y-122909583I0J260417D01*
G01*
X147340000Y-120930417D01*
G75*
G02*
X147600417Y-120670000I260417J0D01*
G01*
X149579583Y-120670000D01*
G75*
G02*
X149840000Y-120930417I0J-260417D01*
G01*
G37*
%TD*%
D14*
%TO.C,REF\u002A\u002A*%
X192405000Y-122555000D03*
%TD*%
%TO.C,REF\u002A\u002A*%
X102235000Y-122555000D03*
%TD*%
%TO.C,REF\u002A\u002A*%
X102235000Y-61595000D03*
%TD*%
%TO.C,REF\u002A\u002A*%
X192405000Y-61595000D03*
%TD*%
D15*
%TO.C,C6*%
X116205000Y-71755000D03*
D16*
X116205000Y-69755000D03*
%TD*%
D17*
%TO.C,C7*%
X120015000Y-89535000D03*
D18*
X120015000Y-92035000D03*
%TD*%
D19*
%TO.C,Q1*%
X167005000Y-64620000D03*
D20*
X164465000Y-81280000D03*
D21*
X167005000Y-81280000D03*
X169545000Y-81280000D03*
%TD*%
D22*
%TO.C,D5*%
X187960000Y-113030000D03*
D23*
X185420000Y-113030000D03*
%TD*%
%TO.C,D6*%
X171450000Y-113030000D03*
D22*
X173990000Y-113030000D03*
%TD*%
%TO.C,D7*%
X180975000Y-113030000D03*
D23*
X178435000Y-113030000D03*
%TD*%
%TO.C,D9*%
X123190000Y-113030000D03*
D22*
X125730000Y-113030000D03*
%TD*%
D24*
%TO.C,J1*%
X181610000Y-121920000D03*
D25*
X179070000Y-121920000D03*
X176530000Y-121920000D03*
X173990000Y-121920000D03*
%TD*%
D24*
%TO.C,TP1*%
X177800000Y-69850000D03*
D25*
X177800000Y-72390000D03*
%TD*%
%TO.C,TP2*%
X113030000Y-121920000D03*
D24*
X115570000Y-121920000D03*
%TD*%
D17*
%TO.C,U1*%
X174625000Y-99060000D03*
D26*
X179705000Y-91440000D03*
X177165000Y-99060000D03*
X177165000Y-91440000D03*
X179705000Y-99060000D03*
X174625000Y-91440000D03*
%TD*%
D11*
%TO.C,R4*%
X142240000Y-66040000D03*
D10*
X142240000Y-86360000D03*
%TD*%
M02*
