%TF.GenerationSoftware,KiCad,Pcbnew,(5.1.6)-1*%
%TF.CreationDate,2020-07-27T14:36:12-04:00*%
%TF.ProjectId,CARIceCreamControl,43415249-6365-4437-9265-616d436f6e74,rev?*%
%TF.SameCoordinates,Original*%
%TF.FileFunction,Soldermask,Top*%
%TF.FilePolarity,Negative*%
%FSLAX46Y46*%
G04 Gerber Fmt 4.6, Leading zero omitted, Abs format (unit mm)*
G04 Created by KiCad (PCBNEW (5.1.6)-1) date 2020-07-27 14:36:12*
%MOMM*%
%LPD*%
G01*
G04 APERTURE LIST*
%ADD10O,2.500000X2.500000*%
%ADD11C,2.500000*%
%ADD12C,2.700000*%
%ADD13R,2.700000X2.700000*%
%ADD14C,4.400000*%
%ADD15R,1.300000X1.300000*%
%ADD16C,1.300000*%
%ADD17R,1.700000X1.700000*%
%ADD18C,1.700000*%
%ADD19O,3.600000X3.600000*%
%ADD20R,2.005000X2.100000*%
%ADD21O,2.005000X2.100000*%
%ADD22R,2.600000X1.900000*%
%ADD23R,1.900000X2.600000*%
%ADD24R,1.900000X1.900000*%
%ADD25C,1.900000*%
%ADD26R,1.800000X1.800000*%
%ADD27O,1.800000X1.800000*%
%ADD28R,3.600000X3.900000*%
%ADD29O,1.700000X1.700000*%
%ADD30R,2.100000X0.700000*%
%ADD31R,1.880000X2.100000*%
G04 APERTURE END LIST*
D10*
%TO.C,F1*%
X148590000Y-78740000D03*
D11*
X156210000Y-78740000D03*
%TD*%
D12*
%TO.C,D1*%
X152640000Y-102870000D03*
D13*
X142240000Y-102870000D03*
D12*
X142240000Y-92470000D03*
X152640000Y-92470000D03*
%TD*%
D11*
%TO.C,J3*%
X159870000Y-121920000D03*
G36*
G01*
X165080000Y-120930417D02*
X165080000Y-122909583D01*
G75*
G02*
X164819583Y-123170000I-260417J0D01*
G01*
X162840417Y-123170000D01*
G75*
G02*
X162580000Y-122909583I0J260417D01*
G01*
X162580000Y-120930417D01*
G75*
G02*
X162840417Y-120670000I260417J0D01*
G01*
X164819583Y-120670000D01*
G75*
G02*
X165080000Y-120930417I0J-260417D01*
G01*
G37*
%TD*%
%TO.C,J2*%
X140670000Y-121920000D03*
X144630000Y-121920000D03*
G36*
G01*
X149840000Y-120930417D02*
X149840000Y-122909583D01*
G75*
G02*
X149579583Y-123170000I-260417J0D01*
G01*
X147600417Y-123170000D01*
G75*
G02*
X147340000Y-122909583I0J260417D01*
G01*
X147340000Y-120930417D01*
G75*
G02*
X147600417Y-120670000I260417J0D01*
G01*
X149579583Y-120670000D01*
G75*
G02*
X149840000Y-120930417I0J-260417D01*
G01*
G37*
%TD*%
D14*
%TO.C,REF\u002A\u002A*%
X192405000Y-122555000D03*
%TD*%
%TO.C,REF\u002A\u002A*%
X102235000Y-122555000D03*
%TD*%
%TO.C,REF\u002A\u002A*%
X102235000Y-61595000D03*
%TD*%
%TO.C,REF\u002A\u002A*%
X192405000Y-61595000D03*
%TD*%
%TO.C,C1*%
G36*
G01*
X170350000Y-86975000D02*
X170350000Y-88285000D01*
G75*
G02*
X170080000Y-88555000I-270000J0D01*
G01*
X169270000Y-88555000D01*
G75*
G02*
X169000000Y-88285000I0J270000D01*
G01*
X169000000Y-86975000D01*
G75*
G02*
X169270000Y-86705000I270000J0D01*
G01*
X170080000Y-86705000D01*
G75*
G02*
X170350000Y-86975000I0J-270000D01*
G01*
G37*
G36*
G01*
X167550000Y-86975000D02*
X167550000Y-88285000D01*
G75*
G02*
X167280000Y-88555000I-270000J0D01*
G01*
X166470000Y-88555000D01*
G75*
G02*
X166200000Y-88285000I0J270000D01*
G01*
X166200000Y-86975000D01*
G75*
G02*
X166470000Y-86705000I270000J0D01*
G01*
X167280000Y-86705000D01*
G75*
G02*
X167550000Y-86975000I0J-270000D01*
G01*
G37*
%TD*%
%TO.C,C2*%
G36*
G01*
X131850000Y-81250000D02*
X129770000Y-81250000D01*
G75*
G02*
X129510000Y-80990000I0J260000D01*
G01*
X129510000Y-77910000D01*
G75*
G02*
X129770000Y-77650000I260000J0D01*
G01*
X131850000Y-77650000D01*
G75*
G02*
X132110000Y-77910000I0J-260000D01*
G01*
X132110000Y-80990000D01*
G75*
G02*
X131850000Y-81250000I-260000J0D01*
G01*
G37*
G36*
G01*
X131850000Y-74750000D02*
X129770000Y-74750000D01*
G75*
G02*
X129510000Y-74490000I0J260000D01*
G01*
X129510000Y-71410000D01*
G75*
G02*
X129770000Y-71150000I260000J0D01*
G01*
X131850000Y-71150000D01*
G75*
G02*
X132110000Y-71410000I0J-260000D01*
G01*
X132110000Y-74490000D01*
G75*
G02*
X131850000Y-74750000I-260000J0D01*
G01*
G37*
%TD*%
%TO.C,C3*%
G36*
G01*
X117370000Y-101830000D02*
X117370000Y-103910000D01*
G75*
G02*
X117110000Y-104170000I-260000J0D01*
G01*
X114030000Y-104170000D01*
G75*
G02*
X113770000Y-103910000I0J260000D01*
G01*
X113770000Y-101830000D01*
G75*
G02*
X114030000Y-101570000I260000J0D01*
G01*
X117110000Y-101570000D01*
G75*
G02*
X117370000Y-101830000I0J-260000D01*
G01*
G37*
G36*
G01*
X123870000Y-101830000D02*
X123870000Y-103910000D01*
G75*
G02*
X123610000Y-104170000I-260000J0D01*
G01*
X120530000Y-104170000D01*
G75*
G02*
X120270000Y-103910000I0J260000D01*
G01*
X120270000Y-101830000D01*
G75*
G02*
X120530000Y-101570000I260000J0D01*
G01*
X123610000Y-101570000D01*
G75*
G02*
X123870000Y-101830000I0J-260000D01*
G01*
G37*
%TD*%
%TO.C,C4*%
G36*
G01*
X180320000Y-74385000D02*
X181630000Y-74385000D01*
G75*
G02*
X181900000Y-74655000I0J-270000D01*
G01*
X181900000Y-75465000D01*
G75*
G02*
X181630000Y-75735000I-270000J0D01*
G01*
X180320000Y-75735000D01*
G75*
G02*
X180050000Y-75465000I0J270000D01*
G01*
X180050000Y-74655000D01*
G75*
G02*
X180320000Y-74385000I270000J0D01*
G01*
G37*
G36*
G01*
X180320000Y-71585000D02*
X181630000Y-71585000D01*
G75*
G02*
X181900000Y-71855000I0J-270000D01*
G01*
X181900000Y-72665000D01*
G75*
G02*
X181630000Y-72935000I-270000J0D01*
G01*
X180320000Y-72935000D01*
G75*
G02*
X180050000Y-72665000I0J270000D01*
G01*
X180050000Y-71855000D01*
G75*
G02*
X180320000Y-71585000I270000J0D01*
G01*
G37*
%TD*%
%TO.C,C5*%
G36*
G01*
X111295000Y-83800000D02*
X111295000Y-85110000D01*
G75*
G02*
X111025000Y-85380000I-270000J0D01*
G01*
X110215000Y-85380000D01*
G75*
G02*
X109945000Y-85110000I0J270000D01*
G01*
X109945000Y-83800000D01*
G75*
G02*
X110215000Y-83530000I270000J0D01*
G01*
X111025000Y-83530000D01*
G75*
G02*
X111295000Y-83800000I0J-270000D01*
G01*
G37*
G36*
G01*
X108495000Y-83800000D02*
X108495000Y-85110000D01*
G75*
G02*
X108225000Y-85380000I-270000J0D01*
G01*
X107415000Y-85380000D01*
G75*
G02*
X107145000Y-85110000I0J270000D01*
G01*
X107145000Y-83800000D01*
G75*
G02*
X107415000Y-83530000I270000J0D01*
G01*
X108225000Y-83530000D01*
G75*
G02*
X108495000Y-83800000I0J-270000D01*
G01*
G37*
%TD*%
D15*
%TO.C,C6*%
X116205000Y-71755000D03*
D16*
X116205000Y-69755000D03*
%TD*%
D17*
%TO.C,C7*%
X120015000Y-89535000D03*
D18*
X120015000Y-92035000D03*
%TD*%
D19*
%TO.C,Q1*%
X167005000Y-64620000D03*
D20*
X164465000Y-81280000D03*
D21*
X167005000Y-81280000D03*
X169545000Y-81280000D03*
%TD*%
D22*
%TO.C,D2*%
X134080000Y-99060000D03*
X130080000Y-99060000D03*
%TD*%
%TO.C,D3*%
G36*
G01*
X118670000Y-67701487D02*
X118670000Y-64378513D01*
G75*
G02*
X118933513Y-64115000I263513J0D01*
G01*
X120356487Y-64115000D01*
G75*
G02*
X120620000Y-64378513I0J-263513D01*
G01*
X120620000Y-67701487D01*
G75*
G02*
X120356487Y-67965000I-263513J0D01*
G01*
X118933513Y-67965000D01*
G75*
G02*
X118670000Y-67701487I0J263513D01*
G01*
G37*
G36*
G01*
X123220000Y-67701487D02*
X123220000Y-64378513D01*
G75*
G02*
X123483513Y-64115000I263513J0D01*
G01*
X124906487Y-64115000D01*
G75*
G02*
X125170000Y-64378513I0J-263513D01*
G01*
X125170000Y-67701487D01*
G75*
G02*
X124906487Y-67965000I-263513J0D01*
G01*
X123483513Y-67965000D01*
G75*
G02*
X123220000Y-67701487I0J263513D01*
G01*
G37*
%TD*%
D23*
%TO.C,D4*%
X120650000Y-76740000D03*
X120650000Y-80740000D03*
%TD*%
D24*
%TO.C,D5*%
X187960000Y-113030000D03*
D25*
X185420000Y-113030000D03*
%TD*%
%TO.C,D6*%
X171450000Y-113030000D03*
D24*
X173990000Y-113030000D03*
%TD*%
%TO.C,D7*%
X180975000Y-113030000D03*
D25*
X178435000Y-113030000D03*
%TD*%
%TO.C,D9*%
X123190000Y-113030000D03*
D24*
X125730000Y-113030000D03*
%TD*%
D26*
%TO.C,J1*%
X181610000Y-121920000D03*
D27*
X179070000Y-121920000D03*
X176530000Y-121920000D03*
X173990000Y-121920000D03*
%TD*%
D28*
%TO.C,L1*%
X130810000Y-85050000D03*
X130810000Y-92750000D03*
%TD*%
%TO.C,L2*%
X104140000Y-97830000D03*
X104140000Y-90130000D03*
%TD*%
%TO.C,R1*%
G36*
G01*
X172065000Y-104865000D02*
X173375000Y-104865000D01*
G75*
G02*
X173645000Y-105135000I0J-270000D01*
G01*
X173645000Y-105945000D01*
G75*
G02*
X173375000Y-106215000I-270000J0D01*
G01*
X172065000Y-106215000D01*
G75*
G02*
X171795000Y-105945000I0J270000D01*
G01*
X171795000Y-105135000D01*
G75*
G02*
X172065000Y-104865000I270000J0D01*
G01*
G37*
G36*
G01*
X172065000Y-102065000D02*
X173375000Y-102065000D01*
G75*
G02*
X173645000Y-102335000I0J-270000D01*
G01*
X173645000Y-103145000D01*
G75*
G02*
X173375000Y-103415000I-270000J0D01*
G01*
X172065000Y-103415000D01*
G75*
G02*
X171795000Y-103145000I0J270000D01*
G01*
X171795000Y-102335000D01*
G75*
G02*
X172065000Y-102065000I270000J0D01*
G01*
G37*
%TD*%
%TO.C,R2*%
G36*
G01*
X171280000Y-88285000D02*
X171280000Y-86975000D01*
G75*
G02*
X171550000Y-86705000I270000J0D01*
G01*
X172360000Y-86705000D01*
G75*
G02*
X172630000Y-86975000I0J-270000D01*
G01*
X172630000Y-88285000D01*
G75*
G02*
X172360000Y-88555000I-270000J0D01*
G01*
X171550000Y-88555000D01*
G75*
G02*
X171280000Y-88285000I0J270000D01*
G01*
G37*
G36*
G01*
X174080000Y-88285000D02*
X174080000Y-86975000D01*
G75*
G02*
X174350000Y-86705000I270000J0D01*
G01*
X175160000Y-86705000D01*
G75*
G02*
X175430000Y-86975000I0J-270000D01*
G01*
X175430000Y-88285000D01*
G75*
G02*
X175160000Y-88555000I-270000J0D01*
G01*
X174350000Y-88555000D01*
G75*
G02*
X174080000Y-88285000I0J270000D01*
G01*
G37*
%TD*%
%TO.C,R3*%
G36*
G01*
X168105000Y-85110000D02*
X168105000Y-83800000D01*
G75*
G02*
X168375000Y-83530000I270000J0D01*
G01*
X169185000Y-83530000D01*
G75*
G02*
X169455000Y-83800000I0J-270000D01*
G01*
X169455000Y-85110000D01*
G75*
G02*
X169185000Y-85380000I-270000J0D01*
G01*
X168375000Y-85380000D01*
G75*
G02*
X168105000Y-85110000I0J270000D01*
G01*
G37*
G36*
G01*
X170905000Y-85110000D02*
X170905000Y-83800000D01*
G75*
G02*
X171175000Y-83530000I270000J0D01*
G01*
X171985000Y-83530000D01*
G75*
G02*
X172255000Y-83800000I0J-270000D01*
G01*
X172255000Y-85110000D01*
G75*
G02*
X171985000Y-85380000I-270000J0D01*
G01*
X171175000Y-85380000D01*
G75*
G02*
X170905000Y-85110000I0J270000D01*
G01*
G37*
%TD*%
%TO.C,R5*%
G36*
G01*
X182970000Y-70505000D02*
X182970000Y-69195000D01*
G75*
G02*
X183240000Y-68925000I270000J0D01*
G01*
X184050000Y-68925000D01*
G75*
G02*
X184320000Y-69195000I0J-270000D01*
G01*
X184320000Y-70505000D01*
G75*
G02*
X184050000Y-70775000I-270000J0D01*
G01*
X183240000Y-70775000D01*
G75*
G02*
X182970000Y-70505000I0J270000D01*
G01*
G37*
G36*
G01*
X180170000Y-70505000D02*
X180170000Y-69195000D01*
G75*
G02*
X180440000Y-68925000I270000J0D01*
G01*
X181250000Y-68925000D01*
G75*
G02*
X181520000Y-69195000I0J-270000D01*
G01*
X181520000Y-70505000D01*
G75*
G02*
X181250000Y-70775000I-270000J0D01*
G01*
X180440000Y-70775000D01*
G75*
G02*
X180170000Y-70505000I0J270000D01*
G01*
G37*
%TD*%
%TO.C,R6*%
G36*
G01*
X182860000Y-71585000D02*
X184170000Y-71585000D01*
G75*
G02*
X184440000Y-71855000I0J-270000D01*
G01*
X184440000Y-72665000D01*
G75*
G02*
X184170000Y-72935000I-270000J0D01*
G01*
X182860000Y-72935000D01*
G75*
G02*
X182590000Y-72665000I0J270000D01*
G01*
X182590000Y-71855000D01*
G75*
G02*
X182860000Y-71585000I270000J0D01*
G01*
G37*
G36*
G01*
X182860000Y-74385000D02*
X184170000Y-74385000D01*
G75*
G02*
X184440000Y-74655000I0J-270000D01*
G01*
X184440000Y-75465000D01*
G75*
G02*
X184170000Y-75735000I-270000J0D01*
G01*
X182860000Y-75735000D01*
G75*
G02*
X182590000Y-75465000I0J270000D01*
G01*
X182590000Y-74655000D01*
G75*
G02*
X182860000Y-74385000I270000J0D01*
G01*
G37*
%TD*%
%TO.C,R7*%
G36*
G01*
X105875000Y-75585000D02*
X105875000Y-74275000D01*
G75*
G02*
X106145000Y-74005000I270000J0D01*
G01*
X106955000Y-74005000D01*
G75*
G02*
X107225000Y-74275000I0J-270000D01*
G01*
X107225000Y-75585000D01*
G75*
G02*
X106955000Y-75855000I-270000J0D01*
G01*
X106145000Y-75855000D01*
G75*
G02*
X105875000Y-75585000I0J270000D01*
G01*
G37*
G36*
G01*
X108675000Y-75585000D02*
X108675000Y-74275000D01*
G75*
G02*
X108945000Y-74005000I270000J0D01*
G01*
X109755000Y-74005000D01*
G75*
G02*
X110025000Y-74275000I0J-270000D01*
G01*
X110025000Y-75585000D01*
G75*
G02*
X109755000Y-75855000I-270000J0D01*
G01*
X108945000Y-75855000D01*
G75*
G02*
X108675000Y-75585000I0J270000D01*
G01*
G37*
%TD*%
%TO.C,R8*%
G36*
G01*
X180170000Y-67965000D02*
X180170000Y-66655000D01*
G75*
G02*
X180440000Y-66385000I270000J0D01*
G01*
X181250000Y-66385000D01*
G75*
G02*
X181520000Y-66655000I0J-270000D01*
G01*
X181520000Y-67965000D01*
G75*
G02*
X181250000Y-68235000I-270000J0D01*
G01*
X180440000Y-68235000D01*
G75*
G02*
X180170000Y-67965000I0J270000D01*
G01*
G37*
G36*
G01*
X182970000Y-67965000D02*
X182970000Y-66655000D01*
G75*
G02*
X183240000Y-66385000I270000J0D01*
G01*
X184050000Y-66385000D01*
G75*
G02*
X184320000Y-66655000I0J-270000D01*
G01*
X184320000Y-67965000D01*
G75*
G02*
X184050000Y-68235000I-270000J0D01*
G01*
X183240000Y-68235000D01*
G75*
G02*
X182970000Y-67965000I0J270000D01*
G01*
G37*
%TD*%
%TO.C,R9*%
G36*
G01*
X112305000Y-74275000D02*
X112305000Y-75585000D01*
G75*
G02*
X112035000Y-75855000I-270000J0D01*
G01*
X111225000Y-75855000D01*
G75*
G02*
X110955000Y-75585000I0J270000D01*
G01*
X110955000Y-74275000D01*
G75*
G02*
X111225000Y-74005000I270000J0D01*
G01*
X112035000Y-74005000D01*
G75*
G02*
X112305000Y-74275000I0J-270000D01*
G01*
G37*
G36*
G01*
X115105000Y-74275000D02*
X115105000Y-75585000D01*
G75*
G02*
X114835000Y-75855000I-270000J0D01*
G01*
X114025000Y-75855000D01*
G75*
G02*
X113755000Y-75585000I0J270000D01*
G01*
X113755000Y-74275000D01*
G75*
G02*
X114025000Y-74005000I270000J0D01*
G01*
X114835000Y-74005000D01*
G75*
G02*
X115105000Y-74275000I0J-270000D01*
G01*
G37*
%TD*%
%TO.C,R10*%
G36*
G01*
X115550000Y-80735000D02*
X116860000Y-80735000D01*
G75*
G02*
X117130000Y-81005000I0J-270000D01*
G01*
X117130000Y-81815000D01*
G75*
G02*
X116860000Y-82085000I-270000J0D01*
G01*
X115550000Y-82085000D01*
G75*
G02*
X115280000Y-81815000I0J270000D01*
G01*
X115280000Y-81005000D01*
G75*
G02*
X115550000Y-80735000I270000J0D01*
G01*
G37*
G36*
G01*
X115550000Y-77935000D02*
X116860000Y-77935000D01*
G75*
G02*
X117130000Y-78205000I0J-270000D01*
G01*
X117130000Y-79015000D01*
G75*
G02*
X116860000Y-79285000I-270000J0D01*
G01*
X115550000Y-79285000D01*
G75*
G02*
X115280000Y-79015000I0J270000D01*
G01*
X115280000Y-78205000D01*
G75*
G02*
X115550000Y-77935000I270000J0D01*
G01*
G37*
%TD*%
%TO.C,R11*%
G36*
G01*
X182225000Y-104865000D02*
X183535000Y-104865000D01*
G75*
G02*
X183805000Y-105135000I0J-270000D01*
G01*
X183805000Y-105945000D01*
G75*
G02*
X183535000Y-106215000I-270000J0D01*
G01*
X182225000Y-106215000D01*
G75*
G02*
X181955000Y-105945000I0J270000D01*
G01*
X181955000Y-105135000D01*
G75*
G02*
X182225000Y-104865000I270000J0D01*
G01*
G37*
G36*
G01*
X182225000Y-102065000D02*
X183535000Y-102065000D01*
G75*
G02*
X183805000Y-102335000I0J-270000D01*
G01*
X183805000Y-103145000D01*
G75*
G02*
X183535000Y-103415000I-270000J0D01*
G01*
X182225000Y-103415000D01*
G75*
G02*
X181955000Y-103145000I0J270000D01*
G01*
X181955000Y-102335000D01*
G75*
G02*
X182225000Y-102065000I270000J0D01*
G01*
G37*
%TD*%
%TO.C,R12*%
G36*
G01*
X179685000Y-102065000D02*
X180995000Y-102065000D01*
G75*
G02*
X181265000Y-102335000I0J-270000D01*
G01*
X181265000Y-103145000D01*
G75*
G02*
X180995000Y-103415000I-270000J0D01*
G01*
X179685000Y-103415000D01*
G75*
G02*
X179415000Y-103145000I0J270000D01*
G01*
X179415000Y-102335000D01*
G75*
G02*
X179685000Y-102065000I270000J0D01*
G01*
G37*
G36*
G01*
X179685000Y-104865000D02*
X180995000Y-104865000D01*
G75*
G02*
X181265000Y-105135000I0J-270000D01*
G01*
X181265000Y-105945000D01*
G75*
G02*
X180995000Y-106215000I-270000J0D01*
G01*
X179685000Y-106215000D01*
G75*
G02*
X179415000Y-105945000I0J270000D01*
G01*
X179415000Y-105135000D01*
G75*
G02*
X179685000Y-104865000I270000J0D01*
G01*
G37*
%TD*%
%TO.C,R13*%
G36*
G01*
X107145000Y-103525000D02*
X107145000Y-102215000D01*
G75*
G02*
X107415000Y-101945000I270000J0D01*
G01*
X108225000Y-101945000D01*
G75*
G02*
X108495000Y-102215000I0J-270000D01*
G01*
X108495000Y-103525000D01*
G75*
G02*
X108225000Y-103795000I-270000J0D01*
G01*
X107415000Y-103795000D01*
G75*
G02*
X107145000Y-103525000I0J270000D01*
G01*
G37*
G36*
G01*
X109945000Y-103525000D02*
X109945000Y-102215000D01*
G75*
G02*
X110215000Y-101945000I270000J0D01*
G01*
X111025000Y-101945000D01*
G75*
G02*
X111295000Y-102215000I0J-270000D01*
G01*
X111295000Y-103525000D01*
G75*
G02*
X111025000Y-103795000I-270000J0D01*
G01*
X110215000Y-103795000D01*
G75*
G02*
X109945000Y-103525000I0J270000D01*
G01*
G37*
%TD*%
%TO.C,R14*%
G36*
G01*
X175915000Y-106215000D02*
X174605000Y-106215000D01*
G75*
G02*
X174335000Y-105945000I0J270000D01*
G01*
X174335000Y-105135000D01*
G75*
G02*
X174605000Y-104865000I270000J0D01*
G01*
X175915000Y-104865000D01*
G75*
G02*
X176185000Y-105135000I0J-270000D01*
G01*
X176185000Y-105945000D01*
G75*
G02*
X175915000Y-106215000I-270000J0D01*
G01*
G37*
G36*
G01*
X175915000Y-103415000D02*
X174605000Y-103415000D01*
G75*
G02*
X174335000Y-103145000I0J270000D01*
G01*
X174335000Y-102335000D01*
G75*
G02*
X174605000Y-102065000I270000J0D01*
G01*
X175915000Y-102065000D01*
G75*
G02*
X176185000Y-102335000I0J-270000D01*
G01*
X176185000Y-103145000D01*
G75*
G02*
X175915000Y-103415000I-270000J0D01*
G01*
G37*
%TD*%
%TO.C,R15*%
G36*
G01*
X178455000Y-103415000D02*
X177145000Y-103415000D01*
G75*
G02*
X176875000Y-103145000I0J270000D01*
G01*
X176875000Y-102335000D01*
G75*
G02*
X177145000Y-102065000I270000J0D01*
G01*
X178455000Y-102065000D01*
G75*
G02*
X178725000Y-102335000I0J-270000D01*
G01*
X178725000Y-103145000D01*
G75*
G02*
X178455000Y-103415000I-270000J0D01*
G01*
G37*
G36*
G01*
X178455000Y-106215000D02*
X177145000Y-106215000D01*
G75*
G02*
X176875000Y-105945000I0J270000D01*
G01*
X176875000Y-105135000D01*
G75*
G02*
X177145000Y-104865000I270000J0D01*
G01*
X178455000Y-104865000D01*
G75*
G02*
X178725000Y-105135000I0J-270000D01*
G01*
X178725000Y-105945000D01*
G75*
G02*
X178455000Y-106215000I-270000J0D01*
G01*
G37*
%TD*%
%TO.C,R16*%
G36*
G01*
X119470000Y-113685000D02*
X119470000Y-112375000D01*
G75*
G02*
X119740000Y-112105000I270000J0D01*
G01*
X120550000Y-112105000D01*
G75*
G02*
X120820000Y-112375000I0J-270000D01*
G01*
X120820000Y-113685000D01*
G75*
G02*
X120550000Y-113955000I-270000J0D01*
G01*
X119740000Y-113955000D01*
G75*
G02*
X119470000Y-113685000I0J270000D01*
G01*
G37*
G36*
G01*
X116670000Y-113685000D02*
X116670000Y-112375000D01*
G75*
G02*
X116940000Y-112105000I270000J0D01*
G01*
X117750000Y-112105000D01*
G75*
G02*
X118020000Y-112375000I0J-270000D01*
G01*
X118020000Y-113685000D01*
G75*
G02*
X117750000Y-113955000I-270000J0D01*
G01*
X116940000Y-113955000D01*
G75*
G02*
X116670000Y-113685000I0J270000D01*
G01*
G37*
%TD*%
D26*
%TO.C,TP1*%
X177800000Y-69850000D03*
D27*
X177800000Y-72390000D03*
%TD*%
%TO.C,TP2*%
X113030000Y-121920000D03*
D26*
X115570000Y-121920000D03*
%TD*%
D17*
%TO.C,U1*%
X174625000Y-99060000D03*
D29*
X179705000Y-91440000D03*
X177165000Y-99060000D03*
X177165000Y-91440000D03*
X179705000Y-99060000D03*
X174625000Y-91440000D03*
%TD*%
D30*
%TO.C,U2*%
X111670000Y-81915000D03*
X111670000Y-80645000D03*
X111670000Y-78105000D03*
X106770000Y-78105000D03*
X106770000Y-79375000D03*
X106770000Y-80645000D03*
X106770000Y-81915000D03*
%TD*%
D31*
%TO.C,U3*%
X191770000Y-78420000D03*
X186690000Y-87950000D03*
X189230000Y-78420000D03*
X189230000Y-87950000D03*
X186690000Y-78420000D03*
X191770000Y-87950000D03*
%TD*%
D11*
%TO.C,R4*%
X142240000Y-66040000D03*
D10*
X142240000Y-86360000D03*
%TD*%
M02*
