%TF.GenerationSoftware,KiCad,Pcbnew,(5.1.6)-1*%
%TF.CreationDate,2020-07-27T14:36:12-04:00*%
%TF.ProjectId,CARIceCreamControl,43415249-6365-4437-9265-616d436f6e74,rev?*%
%TF.SameCoordinates,Original*%
%TF.FileFunction,Copper,L1,Top*%
%TF.FilePolarity,Positive*%
%FSLAX46Y46*%
G04 Gerber Fmt 4.6, Leading zero omitted, Abs format (unit mm)*
G04 Created by KiCad (PCBNEW (5.1.6)-1) date 2020-07-27 14:36:12*
%MOMM*%
%LPD*%
G01*
G04 APERTURE LIST*
%TA.AperFunction,ComponentPad*%
%ADD10O,2.400000X2.400000*%
%TD*%
%TA.AperFunction,ComponentPad*%
%ADD11C,2.400000*%
%TD*%
%TA.AperFunction,ComponentPad*%
%ADD12C,2.600000*%
%TD*%
%TA.AperFunction,ComponentPad*%
%ADD13R,2.600000X2.600000*%
%TD*%
%TA.AperFunction,ComponentPad*%
%ADD14R,1.200000X1.200000*%
%TD*%
%TA.AperFunction,ComponentPad*%
%ADD15C,1.200000*%
%TD*%
%TA.AperFunction,ComponentPad*%
%ADD16R,1.600000X1.600000*%
%TD*%
%TA.AperFunction,ComponentPad*%
%ADD17C,1.600000*%
%TD*%
%TA.AperFunction,ComponentPad*%
%ADD18R,1.905000X2.000000*%
%TD*%
%TA.AperFunction,ComponentPad*%
%ADD19O,1.905000X2.000000*%
%TD*%
%TA.AperFunction,SMDPad,CuDef*%
%ADD20R,2.500000X1.800000*%
%TD*%
%TA.AperFunction,SMDPad,CuDef*%
%ADD21R,1.800000X2.500000*%
%TD*%
%TA.AperFunction,ComponentPad*%
%ADD22R,1.800000X1.800000*%
%TD*%
%TA.AperFunction,ComponentPad*%
%ADD23C,1.800000*%
%TD*%
%TA.AperFunction,ComponentPad*%
%ADD24R,1.700000X1.700000*%
%TD*%
%TA.AperFunction,ComponentPad*%
%ADD25O,1.700000X1.700000*%
%TD*%
%TA.AperFunction,SMDPad,CuDef*%
%ADD26R,3.500000X3.800000*%
%TD*%
%TA.AperFunction,ComponentPad*%
%ADD27O,1.600000X1.600000*%
%TD*%
%TA.AperFunction,SMDPad,CuDef*%
%ADD28R,2.000000X0.600000*%
%TD*%
%TA.AperFunction,SMDPad,CuDef*%
%ADD29R,1.780000X2.000000*%
%TD*%
%TA.AperFunction,ViaPad*%
%ADD30C,0.800000*%
%TD*%
%TA.AperFunction,Conductor*%
%ADD31C,1.500000*%
%TD*%
%TA.AperFunction,Conductor*%
%ADD32C,2.000000*%
%TD*%
%TA.AperFunction,Conductor*%
%ADD33C,0.500000*%
%TD*%
%TA.AperFunction,Conductor*%
%ADD34C,0.250000*%
%TD*%
%TA.AperFunction,Conductor*%
%ADD35C,0.750000*%
%TD*%
G04 APERTURE END LIST*
D10*
%TO.P,F1,2*%
%TO.N,Net-(F1-Pad2)*%
X148590000Y-78740000D03*
D11*
%TO.P,F1,1*%
%TO.N,Net-(D1-Pad4)*%
X156210000Y-78740000D03*
%TD*%
D12*
%TO.P,D1,2*%
%TO.N,Net-(D1-Pad2)*%
X152640000Y-102870000D03*
D13*
%TO.P,D1,1*%
%TO.N,Net-(C4-Pad1)*%
X142240000Y-102870000D03*
D12*
%TO.P,D1,4*%
%TO.N,Net-(D1-Pad4)*%
X142240000Y-92470000D03*
%TO.P,D1,3*%
%TO.N,Net-(C4-Pad2)*%
X152640000Y-92470000D03*
%TD*%
D11*
%TO.P,J3,2*%
%TO.N,Net-(D1-Pad2)*%
X159870000Y-121920000D03*
%TO.P,J3,1*%
%TO.N,Net-(C1-Pad2)*%
%TA.AperFunction,ComponentPad*%
G36*
G01*
X165030000Y-120970000D02*
X165030000Y-122870000D01*
G75*
G02*
X164780000Y-123120000I-250000J0D01*
G01*
X162880000Y-123120000D01*
G75*
G02*
X162630000Y-122870000I0J250000D01*
G01*
X162630000Y-120970000D01*
G75*
G02*
X162880000Y-120720000I250000J0D01*
G01*
X164780000Y-120720000D01*
G75*
G02*
X165030000Y-120970000I0J-250000D01*
G01*
G37*
%TD.AperFunction*%
%TD*%
%TO.P,J2,3*%
%TO.N,Net-(J2-Pad3)*%
X140670000Y-121920000D03*
%TO.P,J2,2*%
%TO.N,Net-(F1-Pad2)*%
X144630000Y-121920000D03*
%TO.P,J2,1*%
%TO.N,Net-(D1-Pad2)*%
%TA.AperFunction,ComponentPad*%
G36*
G01*
X149790000Y-120970000D02*
X149790000Y-122870000D01*
G75*
G02*
X149540000Y-123120000I-250000J0D01*
G01*
X147640000Y-123120000D01*
G75*
G02*
X147390000Y-122870000I0J250000D01*
G01*
X147390000Y-120970000D01*
G75*
G02*
X147640000Y-120720000I250000J0D01*
G01*
X149540000Y-120720000D01*
G75*
G02*
X149790000Y-120970000I0J-250000D01*
G01*
G37*
%TD.AperFunction*%
%TD*%
%TO.P,C1,1*%
%TO.N,Net-(C1-Pad1)*%
%TA.AperFunction,SMDPad,CuDef*%
G36*
G01*
X170300000Y-87005000D02*
X170300000Y-88255000D01*
G75*
G02*
X170050000Y-88505000I-250000J0D01*
G01*
X169300000Y-88505000D01*
G75*
G02*
X169050000Y-88255000I0J250000D01*
G01*
X169050000Y-87005000D01*
G75*
G02*
X169300000Y-86755000I250000J0D01*
G01*
X170050000Y-86755000D01*
G75*
G02*
X170300000Y-87005000I0J-250000D01*
G01*
G37*
%TD.AperFunction*%
%TO.P,C1,2*%
%TO.N,Net-(C1-Pad2)*%
%TA.AperFunction,SMDPad,CuDef*%
G36*
G01*
X167500000Y-87005000D02*
X167500000Y-88255000D01*
G75*
G02*
X167250000Y-88505000I-250000J0D01*
G01*
X166500000Y-88505000D01*
G75*
G02*
X166250000Y-88255000I0J250000D01*
G01*
X166250000Y-87005000D01*
G75*
G02*
X166500000Y-86755000I250000J0D01*
G01*
X167250000Y-86755000D01*
G75*
G02*
X167500000Y-87005000I0J-250000D01*
G01*
G37*
%TD.AperFunction*%
%TD*%
%TO.P,C2,1*%
%TO.N,Net-(C2-Pad1)*%
%TA.AperFunction,SMDPad,CuDef*%
G36*
G01*
X131810000Y-81200000D02*
X129810000Y-81200000D01*
G75*
G02*
X129560000Y-80950000I0J250000D01*
G01*
X129560000Y-77950000D01*
G75*
G02*
X129810000Y-77700000I250000J0D01*
G01*
X131810000Y-77700000D01*
G75*
G02*
X132060000Y-77950000I0J-250000D01*
G01*
X132060000Y-80950000D01*
G75*
G02*
X131810000Y-81200000I-250000J0D01*
G01*
G37*
%TD.AperFunction*%
%TO.P,C2,2*%
%TO.N,GND2*%
%TA.AperFunction,SMDPad,CuDef*%
G36*
G01*
X131810000Y-74700000D02*
X129810000Y-74700000D01*
G75*
G02*
X129560000Y-74450000I0J250000D01*
G01*
X129560000Y-71450000D01*
G75*
G02*
X129810000Y-71200000I250000J0D01*
G01*
X131810000Y-71200000D01*
G75*
G02*
X132060000Y-71450000I0J-250000D01*
G01*
X132060000Y-74450000D01*
G75*
G02*
X131810000Y-74700000I-250000J0D01*
G01*
G37*
%TD.AperFunction*%
%TD*%
%TO.P,C3,2*%
%TO.N,GND2*%
%TA.AperFunction,SMDPad,CuDef*%
G36*
G01*
X117320000Y-101870000D02*
X117320000Y-103870000D01*
G75*
G02*
X117070000Y-104120000I-250000J0D01*
G01*
X114070000Y-104120000D01*
G75*
G02*
X113820000Y-103870000I0J250000D01*
G01*
X113820000Y-101870000D01*
G75*
G02*
X114070000Y-101620000I250000J0D01*
G01*
X117070000Y-101620000D01*
G75*
G02*
X117320000Y-101870000I0J-250000D01*
G01*
G37*
%TD.AperFunction*%
%TO.P,C3,1*%
%TO.N,Net-(C3-Pad1)*%
%TA.AperFunction,SMDPad,CuDef*%
G36*
G01*
X123820000Y-101870000D02*
X123820000Y-103870000D01*
G75*
G02*
X123570000Y-104120000I-250000J0D01*
G01*
X120570000Y-104120000D01*
G75*
G02*
X120320000Y-103870000I0J250000D01*
G01*
X120320000Y-101870000D01*
G75*
G02*
X120570000Y-101620000I250000J0D01*
G01*
X123570000Y-101620000D01*
G75*
G02*
X123820000Y-101870000I0J-250000D01*
G01*
G37*
%TD.AperFunction*%
%TD*%
%TO.P,C4,2*%
%TO.N,Net-(C4-Pad2)*%
%TA.AperFunction,SMDPad,CuDef*%
G36*
G01*
X180350000Y-74435000D02*
X181600000Y-74435000D01*
G75*
G02*
X181850000Y-74685000I0J-250000D01*
G01*
X181850000Y-75435000D01*
G75*
G02*
X181600000Y-75685000I-250000J0D01*
G01*
X180350000Y-75685000D01*
G75*
G02*
X180100000Y-75435000I0J250000D01*
G01*
X180100000Y-74685000D01*
G75*
G02*
X180350000Y-74435000I250000J0D01*
G01*
G37*
%TD.AperFunction*%
%TO.P,C4,1*%
%TO.N,Net-(C4-Pad1)*%
%TA.AperFunction,SMDPad,CuDef*%
G36*
G01*
X180350000Y-71635000D02*
X181600000Y-71635000D01*
G75*
G02*
X181850000Y-71885000I0J-250000D01*
G01*
X181850000Y-72635000D01*
G75*
G02*
X181600000Y-72885000I-250000J0D01*
G01*
X180350000Y-72885000D01*
G75*
G02*
X180100000Y-72635000I0J250000D01*
G01*
X180100000Y-71885000D01*
G75*
G02*
X180350000Y-71635000I250000J0D01*
G01*
G37*
%TD.AperFunction*%
%TD*%
%TO.P,C5,1*%
%TO.N,Net-(C5-Pad1)*%
%TA.AperFunction,SMDPad,CuDef*%
G36*
G01*
X111245000Y-83830000D02*
X111245000Y-85080000D01*
G75*
G02*
X110995000Y-85330000I-250000J0D01*
G01*
X110245000Y-85330000D01*
G75*
G02*
X109995000Y-85080000I0J250000D01*
G01*
X109995000Y-83830000D01*
G75*
G02*
X110245000Y-83580000I250000J0D01*
G01*
X110995000Y-83580000D01*
G75*
G02*
X111245000Y-83830000I0J-250000D01*
G01*
G37*
%TD.AperFunction*%
%TO.P,C5,2*%
%TO.N,Net-(C5-Pad2)*%
%TA.AperFunction,SMDPad,CuDef*%
G36*
G01*
X108445000Y-83830000D02*
X108445000Y-85080000D01*
G75*
G02*
X108195000Y-85330000I-250000J0D01*
G01*
X107445000Y-85330000D01*
G75*
G02*
X107195000Y-85080000I0J250000D01*
G01*
X107195000Y-83830000D01*
G75*
G02*
X107445000Y-83580000I250000J0D01*
G01*
X108195000Y-83580000D01*
G75*
G02*
X108445000Y-83830000I0J-250000D01*
G01*
G37*
%TD.AperFunction*%
%TD*%
D14*
%TO.P,C6,1*%
%TO.N,Net-(C6-Pad1)*%
X116205000Y-71755000D03*
D15*
%TO.P,C6,2*%
%TO.N,Net-(C5-Pad2)*%
X116205000Y-69755000D03*
%TD*%
D16*
%TO.P,C7,1*%
%TO.N,Net-(C7-Pad1)*%
X120015000Y-89535000D03*
D17*
%TO.P,C7,2*%
%TO.N,GND2*%
X120015000Y-92035000D03*
%TD*%
D18*
%TO.P,Q1,1*%
%TO.N,Net-(C1-Pad2)*%
X164465000Y-81280000D03*
D19*
%TO.P,Q1,2*%
%TO.N,Net-(D1-Pad4)*%
X167005000Y-81280000D03*
%TO.P,Q1,3*%
%TO.N,Net-(Q1-Pad3)*%
X169545000Y-81280000D03*
%TD*%
D20*
%TO.P,D2,2*%
%TO.N,Net-(C4-Pad1)*%
X134080000Y-99060000D03*
%TO.P,D2,1*%
%TO.N,Net-(C3-Pad1)*%
X130080000Y-99060000D03*
%TD*%
%TO.P,D3,1*%
%TO.N,Net-(C5-Pad2)*%
%TA.AperFunction,SMDPad,CuDef*%
G36*
G01*
X118720000Y-67665001D02*
X118720000Y-64414999D01*
G75*
G02*
X118969999Y-64165000I249999J0D01*
G01*
X120320001Y-64165000D01*
G75*
G02*
X120570000Y-64414999I0J-249999D01*
G01*
X120570000Y-67665001D01*
G75*
G02*
X120320001Y-67915000I-249999J0D01*
G01*
X118969999Y-67915000D01*
G75*
G02*
X118720000Y-67665001I0J249999D01*
G01*
G37*
%TD.AperFunction*%
%TO.P,D3,2*%
%TO.N,GND2*%
%TA.AperFunction,SMDPad,CuDef*%
G36*
G01*
X123270000Y-67665001D02*
X123270000Y-64414999D01*
G75*
G02*
X123519999Y-64165000I249999J0D01*
G01*
X124870001Y-64165000D01*
G75*
G02*
X125120000Y-64414999I0J-249999D01*
G01*
X125120000Y-67665001D01*
G75*
G02*
X124870001Y-67915000I-249999J0D01*
G01*
X123519999Y-67915000D01*
G75*
G02*
X123270000Y-67665001I0J249999D01*
G01*
G37*
%TD.AperFunction*%
%TD*%
D21*
%TO.P,D4,1*%
%TO.N,Net-(C6-Pad1)*%
X120650000Y-76740000D03*
%TO.P,D4,2*%
%TO.N,Net-(C7-Pad1)*%
X120650000Y-80740000D03*
%TD*%
D22*
%TO.P,D5,1*%
%TO.N,GND*%
X187960000Y-113030000D03*
D23*
%TO.P,D5,2*%
%TO.N,Net-(D5-Pad2)*%
X185420000Y-113030000D03*
%TD*%
%TO.P,D6,2*%
%TO.N,Net-(D6-Pad2)*%
X171450000Y-113030000D03*
D22*
%TO.P,D6,1*%
%TO.N,trigger*%
X173990000Y-113030000D03*
%TD*%
%TO.P,D7,1*%
%TO.N,GND*%
X180975000Y-113030000D03*
D23*
%TO.P,D7,2*%
%TO.N,Net-(D7-Pad2)*%
X178435000Y-113030000D03*
%TD*%
%TO.P,D9,2*%
%TO.N,Net-(D9-Pad2)*%
X123190000Y-113030000D03*
D22*
%TO.P,D9,1*%
%TO.N,GND2*%
X125730000Y-113030000D03*
%TD*%
D24*
%TO.P,J1,1*%
%TO.N,GND*%
X181610000Y-121920000D03*
D25*
%TO.P,J1,2*%
%TO.N,trigger*%
X179070000Y-121920000D03*
%TO.P,J1,3*%
%TO.N,zcross*%
X176530000Y-121920000D03*
%TO.P,J1,4*%
%TO.N,+5V*%
X173990000Y-121920000D03*
%TD*%
D26*
%TO.P,L1,1*%
%TO.N,Net-(C2-Pad1)*%
X130810000Y-85050000D03*
%TO.P,L1,2*%
%TO.N,Net-(C3-Pad1)*%
X130810000Y-92750000D03*
%TD*%
%TO.P,L2,2*%
%TO.N,Net-(C7-Pad1)*%
X104140000Y-97830000D03*
%TO.P,L2,1*%
%TO.N,Net-(C5-Pad2)*%
X104140000Y-90130000D03*
%TD*%
%TO.P,R1,2*%
%TO.N,Net-(R1-Pad2)*%
%TA.AperFunction,SMDPad,CuDef*%
G36*
G01*
X172095000Y-104915000D02*
X173345000Y-104915000D01*
G75*
G02*
X173595000Y-105165000I0J-250000D01*
G01*
X173595000Y-105915000D01*
G75*
G02*
X173345000Y-106165000I-250000J0D01*
G01*
X172095000Y-106165000D01*
G75*
G02*
X171845000Y-105915000I0J250000D01*
G01*
X171845000Y-105165000D01*
G75*
G02*
X172095000Y-104915000I250000J0D01*
G01*
G37*
%TD.AperFunction*%
%TO.P,R1,1*%
%TO.N,+5V*%
%TA.AperFunction,SMDPad,CuDef*%
G36*
G01*
X172095000Y-102115000D02*
X173345000Y-102115000D01*
G75*
G02*
X173595000Y-102365000I0J-250000D01*
G01*
X173595000Y-103115000D01*
G75*
G02*
X173345000Y-103365000I-250000J0D01*
G01*
X172095000Y-103365000D01*
G75*
G02*
X171845000Y-103115000I0J250000D01*
G01*
X171845000Y-102365000D01*
G75*
G02*
X172095000Y-102115000I250000J0D01*
G01*
G37*
%TD.AperFunction*%
%TD*%
%TO.P,R2,1*%
%TO.N,Net-(C1-Pad1)*%
%TA.AperFunction,SMDPad,CuDef*%
G36*
G01*
X171330000Y-88255000D02*
X171330000Y-87005000D01*
G75*
G02*
X171580000Y-86755000I250000J0D01*
G01*
X172330000Y-86755000D01*
G75*
G02*
X172580000Y-87005000I0J-250000D01*
G01*
X172580000Y-88255000D01*
G75*
G02*
X172330000Y-88505000I-250000J0D01*
G01*
X171580000Y-88505000D01*
G75*
G02*
X171330000Y-88255000I0J250000D01*
G01*
G37*
%TD.AperFunction*%
%TO.P,R2,2*%
%TO.N,Net-(R2-Pad2)*%
%TA.AperFunction,SMDPad,CuDef*%
G36*
G01*
X174130000Y-88255000D02*
X174130000Y-87005000D01*
G75*
G02*
X174380000Y-86755000I250000J0D01*
G01*
X175130000Y-86755000D01*
G75*
G02*
X175380000Y-87005000I0J-250000D01*
G01*
X175380000Y-88255000D01*
G75*
G02*
X175130000Y-88505000I-250000J0D01*
G01*
X174380000Y-88505000D01*
G75*
G02*
X174130000Y-88255000I0J250000D01*
G01*
G37*
%TD.AperFunction*%
%TD*%
%TO.P,R3,1*%
%TO.N,Net-(D1-Pad4)*%
%TA.AperFunction,SMDPad,CuDef*%
G36*
G01*
X168155000Y-85080000D02*
X168155000Y-83830000D01*
G75*
G02*
X168405000Y-83580000I250000J0D01*
G01*
X169155000Y-83580000D01*
G75*
G02*
X169405000Y-83830000I0J-250000D01*
G01*
X169405000Y-85080000D01*
G75*
G02*
X169155000Y-85330000I-250000J0D01*
G01*
X168405000Y-85330000D01*
G75*
G02*
X168155000Y-85080000I0J250000D01*
G01*
G37*
%TD.AperFunction*%
%TO.P,R3,2*%
%TO.N,Net-(C1-Pad1)*%
%TA.AperFunction,SMDPad,CuDef*%
G36*
G01*
X170955000Y-85080000D02*
X170955000Y-83830000D01*
G75*
G02*
X171205000Y-83580000I250000J0D01*
G01*
X171955000Y-83580000D01*
G75*
G02*
X172205000Y-83830000I0J-250000D01*
G01*
X172205000Y-85080000D01*
G75*
G02*
X171955000Y-85330000I-250000J0D01*
G01*
X171205000Y-85330000D01*
G75*
G02*
X170955000Y-85080000I0J250000D01*
G01*
G37*
%TD.AperFunction*%
%TD*%
%TO.P,R5,2*%
%TO.N,Net-(R5-Pad2)*%
%TA.AperFunction,SMDPad,CuDef*%
G36*
G01*
X183020000Y-70475000D02*
X183020000Y-69225000D01*
G75*
G02*
X183270000Y-68975000I250000J0D01*
G01*
X184020000Y-68975000D01*
G75*
G02*
X184270000Y-69225000I0J-250000D01*
G01*
X184270000Y-70475000D01*
G75*
G02*
X184020000Y-70725000I-250000J0D01*
G01*
X183270000Y-70725000D01*
G75*
G02*
X183020000Y-70475000I0J250000D01*
G01*
G37*
%TD.AperFunction*%
%TO.P,R5,1*%
%TO.N,Net-(C4-Pad1)*%
%TA.AperFunction,SMDPad,CuDef*%
G36*
G01*
X180220000Y-70475000D02*
X180220000Y-69225000D01*
G75*
G02*
X180470000Y-68975000I250000J0D01*
G01*
X181220000Y-68975000D01*
G75*
G02*
X181470000Y-69225000I0J-250000D01*
G01*
X181470000Y-70475000D01*
G75*
G02*
X181220000Y-70725000I-250000J0D01*
G01*
X180470000Y-70725000D01*
G75*
G02*
X180220000Y-70475000I0J250000D01*
G01*
G37*
%TD.AperFunction*%
%TD*%
%TO.P,R6,1*%
%TO.N,Net-(R5-Pad2)*%
%TA.AperFunction,SMDPad,CuDef*%
G36*
G01*
X182890000Y-71635000D02*
X184140000Y-71635000D01*
G75*
G02*
X184390000Y-71885000I0J-250000D01*
G01*
X184390000Y-72635000D01*
G75*
G02*
X184140000Y-72885000I-250000J0D01*
G01*
X182890000Y-72885000D01*
G75*
G02*
X182640000Y-72635000I0J250000D01*
G01*
X182640000Y-71885000D01*
G75*
G02*
X182890000Y-71635000I250000J0D01*
G01*
G37*
%TD.AperFunction*%
%TO.P,R6,2*%
%TO.N,Net-(C4-Pad2)*%
%TA.AperFunction,SMDPad,CuDef*%
G36*
G01*
X182890000Y-74435000D02*
X184140000Y-74435000D01*
G75*
G02*
X184390000Y-74685000I0J-250000D01*
G01*
X184390000Y-75435000D01*
G75*
G02*
X184140000Y-75685000I-250000J0D01*
G01*
X182890000Y-75685000D01*
G75*
G02*
X182640000Y-75435000I0J250000D01*
G01*
X182640000Y-74685000D01*
G75*
G02*
X182890000Y-74435000I250000J0D01*
G01*
G37*
%TD.AperFunction*%
%TD*%
%TO.P,R7,1*%
%TO.N,Net-(C5-Pad2)*%
%TA.AperFunction,SMDPad,CuDef*%
G36*
G01*
X105925000Y-75555000D02*
X105925000Y-74305000D01*
G75*
G02*
X106175000Y-74055000I250000J0D01*
G01*
X106925000Y-74055000D01*
G75*
G02*
X107175000Y-74305000I0J-250000D01*
G01*
X107175000Y-75555000D01*
G75*
G02*
X106925000Y-75805000I-250000J0D01*
G01*
X106175000Y-75805000D01*
G75*
G02*
X105925000Y-75555000I0J250000D01*
G01*
G37*
%TD.AperFunction*%
%TO.P,R7,2*%
%TO.N,Net-(R7-Pad2)*%
%TA.AperFunction,SMDPad,CuDef*%
G36*
G01*
X108725000Y-75555000D02*
X108725000Y-74305000D01*
G75*
G02*
X108975000Y-74055000I250000J0D01*
G01*
X109725000Y-74055000D01*
G75*
G02*
X109975000Y-74305000I0J-250000D01*
G01*
X109975000Y-75555000D01*
G75*
G02*
X109725000Y-75805000I-250000J0D01*
G01*
X108975000Y-75805000D01*
G75*
G02*
X108725000Y-75555000I0J250000D01*
G01*
G37*
%TD.AperFunction*%
%TD*%
%TO.P,R8,1*%
%TO.N,Net-(C4-Pad1)*%
%TA.AperFunction,SMDPad,CuDef*%
G36*
G01*
X180220000Y-67935000D02*
X180220000Y-66685000D01*
G75*
G02*
X180470000Y-66435000I250000J0D01*
G01*
X181220000Y-66435000D01*
G75*
G02*
X181470000Y-66685000I0J-250000D01*
G01*
X181470000Y-67935000D01*
G75*
G02*
X181220000Y-68185000I-250000J0D01*
G01*
X180470000Y-68185000D01*
G75*
G02*
X180220000Y-67935000I0J250000D01*
G01*
G37*
%TD.AperFunction*%
%TO.P,R8,2*%
%TO.N,Net-(R8-Pad2)*%
%TA.AperFunction,SMDPad,CuDef*%
G36*
G01*
X183020000Y-67935000D02*
X183020000Y-66685000D01*
G75*
G02*
X183270000Y-66435000I250000J0D01*
G01*
X184020000Y-66435000D01*
G75*
G02*
X184270000Y-66685000I0J-250000D01*
G01*
X184270000Y-67935000D01*
G75*
G02*
X184020000Y-68185000I-250000J0D01*
G01*
X183270000Y-68185000D01*
G75*
G02*
X183020000Y-67935000I0J250000D01*
G01*
G37*
%TD.AperFunction*%
%TD*%
%TO.P,R9,2*%
%TO.N,Net-(R7-Pad2)*%
%TA.AperFunction,SMDPad,CuDef*%
G36*
G01*
X112255000Y-74305000D02*
X112255000Y-75555000D01*
G75*
G02*
X112005000Y-75805000I-250000J0D01*
G01*
X111255000Y-75805000D01*
G75*
G02*
X111005000Y-75555000I0J250000D01*
G01*
X111005000Y-74305000D01*
G75*
G02*
X111255000Y-74055000I250000J0D01*
G01*
X112005000Y-74055000D01*
G75*
G02*
X112255000Y-74305000I0J-250000D01*
G01*
G37*
%TD.AperFunction*%
%TO.P,R9,1*%
%TO.N,Net-(C6-Pad1)*%
%TA.AperFunction,SMDPad,CuDef*%
G36*
G01*
X115055000Y-74305000D02*
X115055000Y-75555000D01*
G75*
G02*
X114805000Y-75805000I-250000J0D01*
G01*
X114055000Y-75805000D01*
G75*
G02*
X113805000Y-75555000I0J250000D01*
G01*
X113805000Y-74305000D01*
G75*
G02*
X114055000Y-74055000I250000J0D01*
G01*
X114805000Y-74055000D01*
G75*
G02*
X115055000Y-74305000I0J-250000D01*
G01*
G37*
%TD.AperFunction*%
%TD*%
%TO.P,R10,2*%
%TO.N,Net-(C5-Pad1)*%
%TA.AperFunction,SMDPad,CuDef*%
G36*
G01*
X115580000Y-80785000D02*
X116830000Y-80785000D01*
G75*
G02*
X117080000Y-81035000I0J-250000D01*
G01*
X117080000Y-81785000D01*
G75*
G02*
X116830000Y-82035000I-250000J0D01*
G01*
X115580000Y-82035000D01*
G75*
G02*
X115330000Y-81785000I0J250000D01*
G01*
X115330000Y-81035000D01*
G75*
G02*
X115580000Y-80785000I250000J0D01*
G01*
G37*
%TD.AperFunction*%
%TO.P,R10,1*%
%TO.N,Net-(C6-Pad1)*%
%TA.AperFunction,SMDPad,CuDef*%
G36*
G01*
X115580000Y-77985000D02*
X116830000Y-77985000D01*
G75*
G02*
X117080000Y-78235000I0J-250000D01*
G01*
X117080000Y-78985000D01*
G75*
G02*
X116830000Y-79235000I-250000J0D01*
G01*
X115580000Y-79235000D01*
G75*
G02*
X115330000Y-78985000I0J250000D01*
G01*
X115330000Y-78235000D01*
G75*
G02*
X115580000Y-77985000I250000J0D01*
G01*
G37*
%TD.AperFunction*%
%TD*%
%TO.P,R11,2*%
%TO.N,+5V*%
%TA.AperFunction,SMDPad,CuDef*%
G36*
G01*
X182255000Y-104915000D02*
X183505000Y-104915000D01*
G75*
G02*
X183755000Y-105165000I0J-250000D01*
G01*
X183755000Y-105915000D01*
G75*
G02*
X183505000Y-106165000I-250000J0D01*
G01*
X182255000Y-106165000D01*
G75*
G02*
X182005000Y-105915000I0J250000D01*
G01*
X182005000Y-105165000D01*
G75*
G02*
X182255000Y-104915000I250000J0D01*
G01*
G37*
%TD.AperFunction*%
%TO.P,R11,1*%
%TO.N,zcross*%
%TA.AperFunction,SMDPad,CuDef*%
G36*
G01*
X182255000Y-102115000D02*
X183505000Y-102115000D01*
G75*
G02*
X183755000Y-102365000I0J-250000D01*
G01*
X183755000Y-103115000D01*
G75*
G02*
X183505000Y-103365000I-250000J0D01*
G01*
X182255000Y-103365000D01*
G75*
G02*
X182005000Y-103115000I0J250000D01*
G01*
X182005000Y-102365000D01*
G75*
G02*
X182255000Y-102115000I250000J0D01*
G01*
G37*
%TD.AperFunction*%
%TD*%
%TO.P,R12,1*%
%TO.N,zcross*%
%TA.AperFunction,SMDPad,CuDef*%
G36*
G01*
X179715000Y-102115000D02*
X180965000Y-102115000D01*
G75*
G02*
X181215000Y-102365000I0J-250000D01*
G01*
X181215000Y-103115000D01*
G75*
G02*
X180965000Y-103365000I-250000J0D01*
G01*
X179715000Y-103365000D01*
G75*
G02*
X179465000Y-103115000I0J250000D01*
G01*
X179465000Y-102365000D01*
G75*
G02*
X179715000Y-102115000I250000J0D01*
G01*
G37*
%TD.AperFunction*%
%TO.P,R12,2*%
%TO.N,Net-(D5-Pad2)*%
%TA.AperFunction,SMDPad,CuDef*%
G36*
G01*
X179715000Y-104915000D02*
X180965000Y-104915000D01*
G75*
G02*
X181215000Y-105165000I0J-250000D01*
G01*
X181215000Y-105915000D01*
G75*
G02*
X180965000Y-106165000I-250000J0D01*
G01*
X179715000Y-106165000D01*
G75*
G02*
X179465000Y-105915000I0J250000D01*
G01*
X179465000Y-105165000D01*
G75*
G02*
X179715000Y-104915000I250000J0D01*
G01*
G37*
%TD.AperFunction*%
%TD*%
%TO.P,R13,1*%
%TO.N,Net-(C7-Pad1)*%
%TA.AperFunction,SMDPad,CuDef*%
G36*
G01*
X107195000Y-103495000D02*
X107195000Y-102245000D01*
G75*
G02*
X107445000Y-101995000I250000J0D01*
G01*
X108195000Y-101995000D01*
G75*
G02*
X108445000Y-102245000I0J-250000D01*
G01*
X108445000Y-103495000D01*
G75*
G02*
X108195000Y-103745000I-250000J0D01*
G01*
X107445000Y-103745000D01*
G75*
G02*
X107195000Y-103495000I0J250000D01*
G01*
G37*
%TD.AperFunction*%
%TO.P,R13,2*%
%TO.N,GND2*%
%TA.AperFunction,SMDPad,CuDef*%
G36*
G01*
X109995000Y-103495000D02*
X109995000Y-102245000D01*
G75*
G02*
X110245000Y-101995000I250000J0D01*
G01*
X110995000Y-101995000D01*
G75*
G02*
X111245000Y-102245000I0J-250000D01*
G01*
X111245000Y-103495000D01*
G75*
G02*
X110995000Y-103745000I-250000J0D01*
G01*
X110245000Y-103745000D01*
G75*
G02*
X109995000Y-103495000I0J250000D01*
G01*
G37*
%TD.AperFunction*%
%TD*%
%TO.P,R14,1*%
%TO.N,Net-(D6-Pad2)*%
%TA.AperFunction,SMDPad,CuDef*%
G36*
G01*
X175885000Y-106165000D02*
X174635000Y-106165000D01*
G75*
G02*
X174385000Y-105915000I0J250000D01*
G01*
X174385000Y-105165000D01*
G75*
G02*
X174635000Y-104915000I250000J0D01*
G01*
X175885000Y-104915000D01*
G75*
G02*
X176135000Y-105165000I0J-250000D01*
G01*
X176135000Y-105915000D01*
G75*
G02*
X175885000Y-106165000I-250000J0D01*
G01*
G37*
%TD.AperFunction*%
%TO.P,R14,2*%
%TO.N,+5V*%
%TA.AperFunction,SMDPad,CuDef*%
G36*
G01*
X175885000Y-103365000D02*
X174635000Y-103365000D01*
G75*
G02*
X174385000Y-103115000I0J250000D01*
G01*
X174385000Y-102365000D01*
G75*
G02*
X174635000Y-102115000I250000J0D01*
G01*
X175885000Y-102115000D01*
G75*
G02*
X176135000Y-102365000I0J-250000D01*
G01*
X176135000Y-103115000D01*
G75*
G02*
X175885000Y-103365000I-250000J0D01*
G01*
G37*
%TD.AperFunction*%
%TD*%
%TO.P,R15,2*%
%TO.N,+5V*%
%TA.AperFunction,SMDPad,CuDef*%
G36*
G01*
X178425000Y-103365000D02*
X177175000Y-103365000D01*
G75*
G02*
X176925000Y-103115000I0J250000D01*
G01*
X176925000Y-102365000D01*
G75*
G02*
X177175000Y-102115000I250000J0D01*
G01*
X178425000Y-102115000D01*
G75*
G02*
X178675000Y-102365000I0J-250000D01*
G01*
X178675000Y-103115000D01*
G75*
G02*
X178425000Y-103365000I-250000J0D01*
G01*
G37*
%TD.AperFunction*%
%TO.P,R15,1*%
%TO.N,Net-(D7-Pad2)*%
%TA.AperFunction,SMDPad,CuDef*%
G36*
G01*
X178425000Y-106165000D02*
X177175000Y-106165000D01*
G75*
G02*
X176925000Y-105915000I0J250000D01*
G01*
X176925000Y-105165000D01*
G75*
G02*
X177175000Y-104915000I250000J0D01*
G01*
X178425000Y-104915000D01*
G75*
G02*
X178675000Y-105165000I0J-250000D01*
G01*
X178675000Y-105915000D01*
G75*
G02*
X178425000Y-106165000I-250000J0D01*
G01*
G37*
%TD.AperFunction*%
%TD*%
%TO.P,R16,2*%
%TO.N,Net-(D9-Pad2)*%
%TA.AperFunction,SMDPad,CuDef*%
G36*
G01*
X119520000Y-113655000D02*
X119520000Y-112405000D01*
G75*
G02*
X119770000Y-112155000I250000J0D01*
G01*
X120520000Y-112155000D01*
G75*
G02*
X120770000Y-112405000I0J-250000D01*
G01*
X120770000Y-113655000D01*
G75*
G02*
X120520000Y-113905000I-250000J0D01*
G01*
X119770000Y-113905000D01*
G75*
G02*
X119520000Y-113655000I0J250000D01*
G01*
G37*
%TD.AperFunction*%
%TO.P,R16,1*%
%TO.N,Net-(C7-Pad1)*%
%TA.AperFunction,SMDPad,CuDef*%
G36*
G01*
X116720000Y-113655000D02*
X116720000Y-112405000D01*
G75*
G02*
X116970000Y-112155000I250000J0D01*
G01*
X117720000Y-112155000D01*
G75*
G02*
X117970000Y-112405000I0J-250000D01*
G01*
X117970000Y-113655000D01*
G75*
G02*
X117720000Y-113905000I-250000J0D01*
G01*
X116970000Y-113905000D01*
G75*
G02*
X116720000Y-113655000I0J250000D01*
G01*
G37*
%TD.AperFunction*%
%TD*%
D24*
%TO.P,TP1,1*%
%TO.N,Net-(C4-Pad1)*%
X177800000Y-69850000D03*
D25*
%TO.P,TP1,2*%
%TO.N,Net-(C4-Pad2)*%
X177800000Y-72390000D03*
%TD*%
%TO.P,TP2,2*%
%TO.N,Net-(C7-Pad1)*%
X113030000Y-121920000D03*
D24*
%TO.P,TP2,1*%
%TO.N,GND2*%
X115570000Y-121920000D03*
%TD*%
D16*
%TO.P,U1,1*%
%TO.N,Net-(R1-Pad2)*%
X174625000Y-99060000D03*
D27*
%TO.P,U1,4*%
%TO.N,Net-(Q1-Pad3)*%
X179705000Y-91440000D03*
%TO.P,U1,2*%
%TO.N,trigger*%
X177165000Y-99060000D03*
%TO.P,U1,5*%
%TO.N,Net-(U1-Pad5)*%
X177165000Y-91440000D03*
%TO.P,U1,3*%
%TO.N,Net-(U1-Pad3)*%
X179705000Y-99060000D03*
%TO.P,U1,6*%
%TO.N,Net-(R2-Pad2)*%
X174625000Y-91440000D03*
%TD*%
D28*
%TO.P,U2,1*%
%TO.N,Net-(C5-Pad1)*%
X111670000Y-81915000D03*
%TO.P,U2,2*%
%TO.N,Net-(R7-Pad2)*%
X111670000Y-80645000D03*
%TO.P,U2,4*%
%TO.N,Net-(C2-Pad1)*%
X111670000Y-78105000D03*
%TO.P,U2,5*%
%TO.N,Net-(C5-Pad2)*%
X106770000Y-78105000D03*
%TO.P,U2,6*%
X106770000Y-79375000D03*
%TO.P,U2,7*%
X106770000Y-80645000D03*
%TO.P,U2,8*%
X106770000Y-81915000D03*
%TD*%
D29*
%TO.P,U3,1*%
%TO.N,Net-(R8-Pad2)*%
X191770000Y-78420000D03*
%TO.P,U3,4*%
%TO.N,zcross*%
X186690000Y-87950000D03*
%TO.P,U3,2*%
%TO.N,Net-(C4-Pad2)*%
X189230000Y-78420000D03*
%TO.P,U3,5*%
%TO.N,GND*%
X189230000Y-87950000D03*
%TO.P,U3,3*%
%TO.N,Net-(U3-Pad3)*%
X186690000Y-78420000D03*
%TO.P,U3,6*%
%TO.N,+5V*%
X191770000Y-87950000D03*
%TD*%
D11*
%TO.P,R4,1*%
%TO.N,GND2*%
X142240000Y-66040000D03*
D10*
%TO.P,R4,2*%
%TO.N,Net-(C4-Pad2)*%
X142240000Y-86360000D03*
%TD*%
D30*
%TO.N,+5V*%
X184785000Y-105410000D03*
X191770000Y-90170000D03*
%TO.N,Net-(C2-Pad1)*%
X127635000Y-79375000D03*
X113665000Y-78105000D03*
%TO.N,zcross*%
X182880000Y-100330000D03*
%TO.N,GND2*%
X113030000Y-102870000D03*
%TD*%
D31*
%TO.N,Net-(C1-Pad1)*%
X171955000Y-87630000D02*
X169675000Y-87630000D01*
X171580000Y-87255000D02*
X171955000Y-87630000D01*
X171580000Y-84455000D02*
X171580000Y-87255000D01*
D32*
%TO.N,Net-(C1-Pad2)*%
X164465000Y-81280000D02*
X164465000Y-87630000D01*
X164465000Y-87630000D02*
X164465000Y-112395000D01*
D31*
X166875000Y-87630000D02*
X164465000Y-87630000D01*
D32*
X164465000Y-121285000D02*
X163830000Y-121920000D01*
X164465000Y-112395000D02*
X164465000Y-121285000D01*
D33*
%TO.N,GND*%
X189230000Y-111760000D02*
X187960000Y-113030000D01*
X189230000Y-87950000D02*
X189230000Y-111760000D01*
X187960000Y-115570000D02*
X181610000Y-121920000D01*
X187960000Y-113030000D02*
X187960000Y-115570000D01*
X180975000Y-113030000D02*
X181610000Y-113665000D01*
X181610000Y-113665000D02*
X181610000Y-121920000D01*
D34*
%TO.N,+5V*%
X177800000Y-102740000D02*
X177800000Y-102870000D01*
X177800000Y-102870000D02*
X179070000Y-104140000D01*
X181480000Y-104140000D02*
X182880000Y-105540000D01*
X179070000Y-104140000D02*
X181480000Y-104140000D01*
D33*
X175260000Y-102740000D02*
X172720000Y-102740000D01*
X177800000Y-102740000D02*
X175260000Y-102740000D01*
X182880000Y-105540000D02*
X184655000Y-105540000D01*
X184655000Y-105540000D02*
X184785000Y-105410000D01*
X191770000Y-87950000D02*
X191770000Y-90170000D01*
%TO.N,Net-(R1-Pad2)*%
X172720000Y-105540000D02*
X171580000Y-105540000D01*
X174625000Y-99060000D02*
X172085000Y-99060000D01*
X170815000Y-100330000D02*
X170815000Y-104775000D01*
X172085000Y-99060000D02*
X170815000Y-100330000D01*
X171580000Y-105540000D02*
X170815000Y-104775000D01*
D31*
%TO.N,Net-(R2-Pad2)*%
X174625000Y-87760000D02*
X174755000Y-87630000D01*
X174625000Y-91440000D02*
X174625000Y-87760000D01*
D32*
%TO.N,Net-(C2-Pad1)*%
X130810000Y-85050000D02*
X130810000Y-79450000D01*
D31*
X130135000Y-85725000D02*
X130810000Y-85050000D01*
X130810000Y-79450000D02*
X127710000Y-79450000D01*
X127710000Y-79450000D02*
X127635000Y-79375000D01*
X113665000Y-78105000D02*
X111670000Y-78105000D01*
D32*
%TO.N,Net-(C3-Pad1)*%
X130080000Y-93480000D02*
X130810000Y-92750000D01*
X130080000Y-99060000D02*
X130080000Y-93480000D01*
X126270000Y-102870000D02*
X130080000Y-99060000D01*
X122070000Y-102870000D02*
X126270000Y-102870000D01*
D33*
%TO.N,Net-(C4-Pad2)*%
X183515000Y-75060000D02*
X183515000Y-74930000D01*
X180845000Y-74930000D02*
X180975000Y-75060000D01*
D32*
X152640000Y-92470000D02*
X152640000Y-87870000D01*
X151130000Y-86360000D02*
X142240000Y-86360000D01*
X152640000Y-87870000D02*
X151130000Y-86360000D01*
D35*
X180975000Y-75060000D02*
X183515000Y-75060000D01*
X180470000Y-75060000D02*
X177800000Y-72390000D01*
X180975000Y-75060000D02*
X180470000Y-75060000D01*
X189230000Y-78420000D02*
X189230000Y-76200000D01*
X188090000Y-75060000D02*
X183515000Y-75060000D01*
X189230000Y-76200000D02*
X188090000Y-75060000D01*
D33*
%TO.N,Net-(C4-Pad1)*%
X180845000Y-72390000D02*
X180975000Y-72260000D01*
D32*
X142240000Y-102870000D02*
X142240000Y-100965000D01*
X140335000Y-99060000D02*
X134080000Y-99060000D01*
X142240000Y-100965000D02*
X140335000Y-99060000D01*
D35*
X180845000Y-67310000D02*
X180845000Y-69850000D01*
X180845000Y-72130000D02*
X180975000Y-72260000D01*
X180845000Y-69850000D02*
X180845000Y-72130000D01*
X180845000Y-69850000D02*
X177800000Y-69850000D01*
D33*
%TO.N,Net-(C5-Pad1)*%
X111670000Y-83405000D02*
X110620000Y-84455000D01*
X111670000Y-81915000D02*
X111670000Y-83405000D01*
X116205000Y-81410000D02*
X116075000Y-81410000D01*
X115570000Y-81915000D02*
X111670000Y-81915000D01*
X116075000Y-81410000D02*
X115570000Y-81915000D01*
D31*
%TO.N,Net-(C5-Pad2)*%
X104140000Y-90130000D02*
X104735000Y-90130000D01*
D33*
X107820000Y-84455000D02*
X107315000Y-84455000D01*
X106770000Y-83910000D02*
X106770000Y-81915000D01*
X107315000Y-84455000D02*
X106770000Y-83910000D01*
D35*
X104775000Y-78105000D02*
X104140000Y-78740000D01*
X106770000Y-78105000D02*
X104775000Y-78105000D01*
X106770000Y-79375000D02*
X104140000Y-79375000D01*
X104775000Y-80645000D02*
X104140000Y-80010000D01*
X106770000Y-80645000D02*
X104775000Y-80645000D01*
X104775000Y-81915000D02*
X104140000Y-81280000D01*
X106770000Y-81915000D02*
X104775000Y-81915000D01*
D33*
X116205000Y-66675000D02*
X116840000Y-66040000D01*
X116205000Y-69755000D02*
X116205000Y-66675000D01*
X106550000Y-74930000D02*
X104140000Y-74930000D01*
D31*
X104140000Y-90130000D02*
X104140000Y-71120000D01*
X109220000Y-66040000D02*
X104140000Y-71120000D01*
X119645000Y-66040000D02*
X109220000Y-66040000D01*
D33*
%TO.N,Net-(C6-Pad1)*%
X116205000Y-74295000D02*
X116205000Y-71755000D01*
X120650000Y-76740000D02*
X120650000Y-75779966D01*
X116205000Y-74930000D02*
X116205000Y-74295000D01*
X116205000Y-74930000D02*
X114430000Y-74930000D01*
X116205000Y-78610000D02*
X116205000Y-74930000D01*
X120650000Y-76740000D02*
X120650000Y-75565000D01*
X120015000Y-74930000D02*
X116205000Y-74930000D01*
X120650000Y-75565000D02*
X120015000Y-74930000D01*
%TO.N,Net-(C7-Pad1)*%
X107820000Y-102870000D02*
X104140000Y-102870000D01*
D31*
X104140000Y-97830000D02*
X104140000Y-105410000D01*
X117475000Y-89535000D02*
X120015000Y-89535000D01*
X104140000Y-97830000D02*
X109180000Y-97830000D01*
X109180000Y-97830000D02*
X117475000Y-89535000D01*
D33*
X120650000Y-88900000D02*
X120015000Y-89535000D01*
X120650000Y-80740000D02*
X120650000Y-88900000D01*
D31*
X113030000Y-114300000D02*
X113030000Y-121920000D01*
D33*
X112395000Y-113030000D02*
X112077500Y-113347500D01*
X117345000Y-113030000D02*
X112395000Y-113030000D01*
D31*
X104140000Y-105410000D02*
X112077500Y-113347500D01*
X112077500Y-113347500D02*
X113030000Y-114300000D01*
D34*
%TO.N,Net-(D6-Pad2)*%
X175260000Y-106045000D02*
X175260000Y-105540000D01*
D33*
X175260000Y-105540000D02*
X175260000Y-106680000D01*
X171450000Y-110490000D02*
X171450000Y-113030000D01*
X175260000Y-106680000D02*
X171450000Y-110490000D01*
D34*
%TO.N,Net-(D7-Pad2)*%
X178435000Y-106175000D02*
X177800000Y-105540000D01*
X178435000Y-113030000D02*
X178435000Y-106175000D01*
D33*
%TO.N,trigger*%
X179070000Y-121920000D02*
X179070000Y-117475000D01*
X174625000Y-113030000D02*
X173990000Y-113030000D01*
X179070000Y-117475000D02*
X174625000Y-113030000D01*
%TO.N,Net-(D9-Pad2)*%
X120145000Y-113030000D02*
X123190000Y-113030000D01*
D34*
%TO.N,zcross*%
X180340000Y-102740000D02*
X182880000Y-102740000D01*
X182880000Y-102740000D02*
X182880000Y-102870000D01*
D33*
X186690000Y-87950000D02*
X186690000Y-88900000D01*
X186690000Y-88900000D02*
X182880000Y-92710000D01*
X182880000Y-102740000D02*
X182880000Y-100330000D01*
X182880000Y-100330000D02*
X182880000Y-92710000D01*
D35*
%TO.N,Net-(R5-Pad2)*%
X183645000Y-72130000D02*
X183515000Y-72260000D01*
X183645000Y-69850000D02*
X183645000Y-72130000D01*
D33*
%TO.N,Net-(R7-Pad2)*%
X111630000Y-74930000D02*
X109350000Y-74930000D01*
X111670000Y-80645000D02*
X110490000Y-80645000D01*
X109350000Y-79505000D02*
X109350000Y-74930000D01*
X110490000Y-80645000D02*
X109350000Y-79505000D01*
D35*
%TO.N,Net-(R8-Pad2)*%
X191770000Y-78420000D02*
X191770000Y-72390000D01*
X191770000Y-72390000D02*
X186690000Y-67310000D01*
X186690000Y-67310000D02*
X183645000Y-67310000D01*
D32*
%TO.N,GND2*%
X115570000Y-102870000D02*
X113030000Y-102870000D01*
X113030000Y-102870000D02*
X111760000Y-102870000D01*
X111760000Y-102870000D02*
X110620000Y-102870000D01*
D31*
X130810000Y-66675000D02*
X130175000Y-66040000D01*
X130810000Y-72950000D02*
X130810000Y-66675000D01*
X142240000Y-66040000D02*
X130175000Y-66040000D01*
X130175000Y-66040000D02*
X124195000Y-66040000D01*
D32*
%TO.N,Net-(D1-Pad4)*%
X158115000Y-76835000D02*
X156210000Y-78740000D01*
X167005000Y-81280000D02*
X167005000Y-78105000D01*
X167005000Y-78105000D02*
X165735000Y-76835000D01*
X147560000Y-97790000D02*
X142240000Y-92470000D01*
X165735000Y-76835000D02*
X160020000Y-76835000D01*
X157480000Y-97790000D02*
X147560000Y-97790000D01*
X160020000Y-76835000D02*
X158115000Y-76835000D01*
X160020000Y-76835000D02*
X160020000Y-95250000D01*
X160020000Y-95250000D02*
X157480000Y-97790000D01*
D31*
X167005000Y-82680000D02*
X168780000Y-84455000D01*
X167005000Y-81280000D02*
X167005000Y-82680000D01*
D34*
%TO.N,Net-(D5-Pad2)*%
X185420000Y-113030000D02*
X184785000Y-113030000D01*
X185420000Y-110620000D02*
X180340000Y-105540000D01*
X185420000Y-113030000D02*
X185420000Y-110620000D01*
D31*
%TO.N,Net-(Q1-Pad3)*%
X179705000Y-91440000D02*
X179705000Y-83820000D01*
X177165000Y-81280000D02*
X169545000Y-81280000D01*
X179705000Y-83820000D02*
X177165000Y-81280000D01*
D32*
%TO.N,Net-(D1-Pad2)*%
X152640000Y-113270000D02*
X153035000Y-113665000D01*
X152640000Y-102870000D02*
X152640000Y-113270000D01*
X153035000Y-113665000D02*
X148890000Y-113665000D01*
X148890000Y-121620000D02*
X148590000Y-121920000D01*
X148890000Y-113665000D02*
X148890000Y-121620000D01*
X159235000Y-121285000D02*
X159870000Y-121920000D01*
X153035000Y-113665000D02*
X159235000Y-113665000D01*
X159235000Y-113665000D02*
X159235000Y-121285000D01*
%TD*%
M02*
